<?xml version="1.0" encoding="UTF-8" standalone="no"?>
<!-- Created with Inkscape (http://www.inkscape.org/) -->

<svg
   width="292.87622mm"
   height="238.55244mm"
   viewBox="0 0 292.87621 238.55244"
   version="1.1"
   id="svg37558"
   inkscape:version="1.2.2 (732a01da63, 2022-12-09)"
   sodipodi:docname="bb_idea_1.svg"
   xmlns:inkscape="http://www.inkscape.org/namespaces/inkscape"
   xmlns:sodipodi="http://sodipodi.sourceforge.net/DTD/sodipodi-0.dtd"
   xmlns="http://www.w3.org/2000/svg"
   xmlns:svg="http://www.w3.org/2000/svg">
  <sodipodi:namedview
     id="namedview37560"
     pagecolor="#ffffff"
     bordercolor="#000000"
     borderopacity="0.25"
     inkscape:showpageshadow="2"
     inkscape:pageopacity="0.0"
     inkscape:pagecheckerboard="0"
     inkscape:deskcolor="#d1d1d1"
     inkscape:document-units="mm"
     showgrid="false"
     inkscape:zoom="0.7385171"
     inkscape:cx="455.6428"
     inkscape:cy="453.6117"
     inkscape:window-width="1920"
     inkscape:window-height="1009"
     inkscape:window-x="-8"
     inkscape:window-y="-8"
     inkscape:window-maximized="1"
     inkscape:current-layer="layer1" />
  <defs
     id="defs37555">
    <marker
       style="overflow:visible"
       id="TriangleStart"
       refX="0"
       refY="0"
       orient="auto-start-reverse"
       inkscape:stockid="TriangleStart"
       markerWidth="5.3244081"
       markerHeight="6.155385"
       viewBox="0 0 5.3244081 6.1553851"
       inkscape:isstock="true"
       inkscape:collect="always"
       preserveAspectRatio="xMidYMid">
      <path
         transform="scale(0.5)"
         style="fill:context-stroke;fill-rule:evenodd;stroke:context-stroke;stroke-width:1pt"
         d="M 5.77,0 -2.88,5 V -5 Z"
         id="path135" />
    </marker>
    <clipPath
       id="clipPath9973">
      <path
         clip-rule="nonzero"
         d="M 14,14 H 43 V 28.835938 H 14 Z m 0,0"
         id="path6578" />
    </clipPath>
    <clipPath
       id="clipPath9062">
      <path
         clip-rule="nonzero"
         d="m 7,5 h 12 v 6.066406 H 7 Z m 0,0"
         id="path4863" />
    </clipPath>
    <clipPath
       id="clipPath1590">
      <path
         clip-rule="nonzero"
         d="m 7,5 h 9 v 6.066406 H 7 Z m 0,0"
         id="path7390" />
    </clipPath>
    <clipPath
       id="clipPath2948">
      <path
         clip-rule="nonzero"
         d="m 15,5 h 5 v 6.066406 h -5 z m 0,0"
         id="path7932" />
    </clipPath>
    <clipPath
       id="clipPath7494">
      <path
         clip-rule="nonzero"
         d="m 20,5 h 12 v 6.066406 H 20 Z m 0,0"
         id="path9555" />
    </clipPath>
    <clipPath
       id="clipPath3567">
      <path
         clip-rule="nonzero"
         d="M 0,0 H 34 V 11.988281 H 0 Z m 0,0"
         id="path1464" />
    </clipPath>
    <clipPath
       id="clipPath9450">
      <path
         clip-rule="nonzero"
         d="m 41,6 h 13 v 5.988281 H 41 Z m 0,0"
         id="path8909" />
    </clipPath>
    <clipPath
       id="clipPath243">
      <path
         clip-rule="nonzero"
         d="m 54,0 h 4 v 11.988281 h -4 z m 0,0"
         id="path9050" />
    </clipPath>
    <clipPath
       id="clipPath5425">
      <path
         clip-rule="nonzero"
         d="M 0,0 H 5 V 5.148438 H 0 Z m 0,0"
         id="path3411" />
    </clipPath>
    <clipPath
       id="clipPath4204">
      <path
         clip-rule="nonzero"
         d="M 0,3 H 6.652344 V 8.300781 H 0 Z m 0,0"
         id="path243" />
    </clipPath>
    <clipPath
       id="clipPath4726">
      <path
         clip-rule="nonzero"
         d="M 0,0 H 34 V 11.953125 H 0 Z m 0,0"
         id="path5399" />
    </clipPath>
    <clipPath
       id="clipPath4014">
      <path
         clip-rule="nonzero"
         d="m 41,0 h 4 v 11.953125 h -4 z m 0,0"
         id="path1291" />
    </clipPath>
    <clipPath
       id="clipPath6702">
      <path
         clip-rule="nonzero"
         d="M 0,2 H 7 V 8.046875 H 0 Z m 0,0"
         id="path7622" />
    </clipPath>
    <clipPath
       id="clipPath7501">
      <path
         clip-rule="nonzero"
         d="M 0,3 H 6.652344 V 8.300781 H 0 Z m 0,0"
         id="path256" />
    </clipPath>
    <clipPath
       id="clipPath4959">
      <path
         clip-rule="nonzero"
         d="M 1,0 H 4 V 11.953125 H 1 Z m 0,0"
         id="path8237" />
    </clipPath>
    <clipPath
       id="clipPath1500">
      <path
         clip-rule="nonzero"
         d="m 26,7 h 3 v 4.953125 h -3 z m 0,0"
         id="path7387" />
    </clipPath>
    <clipPath
       id="clipPath6884">
      <path
         clip-rule="nonzero"
         d="m 43,0 h 4 v 11.953125 h -4 z m 0,0"
         id="path5489" />
    </clipPath>
    <clipPath
       id="clipPath5482">
      <path
         clip-rule="nonzero"
         d="M 1,0 H 4 V 11.953125 H 1 Z m 0,0"
         id="path7179" />
    </clipPath>
    <clipPath
       id="clipPath234">
      <path
         clip-rule="nonzero"
         d="m 29,7 h 3 v 4.953125 h -3 z m 0,0"
         id="path5732" />
    </clipPath>
    <clipPath
       id="clipPath3980">
      <path
         clip-rule="nonzero"
         d="m 46,0 h 4 v 11.953125 h -4 z m 0,0"
         id="path2864" />
    </clipPath>
    <clipPath
       id="clipPath1033">
      <path
         clip-rule="nonzero"
         d="M 1,0 H 4 V 11.953125 H 1 Z m 0,0"
         id="path2771" />
    </clipPath>
    <clipPath
       id="clipPath563">
      <path
         clip-rule="nonzero"
         d="m 29,7 h 3 v 4.953125 h -3 z m 0,0"
         id="path4974" />
    </clipPath>
    <clipPath
       id="clipPath8352">
      <path
         clip-rule="nonzero"
         d="M 43,0 H 53 V 11.953125 H 43 Z m 0,0"
         id="path4824" />
    </clipPath>
    <clipPath
       id="clipPath3891">
      <path
         clip-rule="nonzero"
         d="M 1,0 H 4 V 11.953125 H 1 Z m 0,0"
         id="path7264" />
    </clipPath>
    <clipPath
       id="clipPath8942">
      <path
         clip-rule="nonzero"
         d="m 29,7 h 3 v 4.953125 h -3 z m 0,0"
         id="path4044" />
    </clipPath>
    <clipPath
       id="clipPath8629">
      <path
         clip-rule="nonzero"
         d="M 43,0 H 53 V 11.953125 H 43 Z m 0,0"
         id="path1640" />
    </clipPath>
  </defs>
  <g
     inkscape:label="Ebene 1"
     inkscape:groupmode="layer"
     id="layer1"
     transform="translate(-237.23492,-9.8954887)">
    <rect
       style="fill:#00ffff;fill-opacity:0.1;stroke:none;stroke-width:0.106069;stroke-dasharray:none;stroke-opacity:1"
       id="rect66826"
       width="8.7624617"
       height="51.511971"
       x="319.77103"
       y="10.402149" />
    <rect
       style="fill:#00ffff;fill-opacity:0.1;stroke:none;stroke-width:0.228266;stroke-dasharray:none;stroke-opacity:1"
       id="rect67036"
       width="38.013321"
       height="54.993343"
       x="345.41068"
       y="10.467346" />
    <ellipse
       style="fill:#0000ff;fill-opacity:1;stroke:#000000;stroke-width:0.0634411;stroke-dasharray:none;stroke-opacity:1"
       id="path3632"
       cx="328.40015"
       cy="12.029222"
       rx="0.46827942"
       ry="0.45536557" />
    <ellipse
       style="fill:#0000ff;fill-opacity:1;stroke:#000000;stroke-width:0.0634411;stroke-dasharray:none;stroke-opacity:1"
       id="ellipse5556"
       cx="345.37329"
       cy="12.029222"
       rx="0.46827942"
       ry="0.45536557" />
    <ellipse
       style="fill:#0000ff;fill-opacity:1;stroke:#000000;stroke-width:0.0634411;stroke-dasharray:none;stroke-opacity:1"
       id="ellipse5560"
       cx="361.38403"
       cy="12.029222"
       rx="0.46827942"
       ry="0.45536557" />
    <ellipse
       style="fill:#0000ff;fill-opacity:1;stroke:#000000;stroke-width:0.063441;stroke-dasharray:none;stroke-opacity:1"
       id="ellipse5564"
       cx="377.39481"
       cy="12.029222"
       rx="0.46827763"
       ry="0.45536557" />
    <ellipse
       style="fill:#0000ff;fill-opacity:1;stroke:#000000;stroke-width:0.0634411;stroke-dasharray:none;stroke-opacity:1"
       id="ellipse5584"
       cx="328.40015"
       cy="28.0366"
       rx="0.46827942"
       ry="0.45536557" />
    <path
       style="fill:#00ff00;fill-opacity:0.2;stroke:#000000;stroke-width:0.2;stroke-dasharray:none;stroke-opacity:1"
       d="m 328.53349,10.402149 v 13.877957 l 24.5619,35.284165 28.64213,5.989854 -16.14391,-42.163655 z"
       id="path81279"
       sodipodi:nodetypes="cccccc" />
    <ellipse
       style="fill:#0000ff;fill-opacity:1;stroke:#000000;stroke-width:0.0634411;stroke-dasharray:none;stroke-opacity:1"
       id="ellipse5588"
       cx="345.37329"
       cy="28.0366"
       rx="0.46827942"
       ry="0.45536557" />
    <ellipse
       style="fill:#0000ff;fill-opacity:1;stroke:#000000;stroke-width:0.0634411;stroke-dasharray:none;stroke-opacity:1"
       id="ellipse5592"
       cx="361.38403"
       cy="28.0366"
       rx="0.46827942"
       ry="0.45536557" />
    <ellipse
       style="fill:#0000ff;fill-opacity:1;stroke:#000000;stroke-width:0.063441;stroke-dasharray:none;stroke-opacity:1"
       id="ellipse5596"
       cx="377.39481"
       cy="28.0366"
       rx="0.46827763"
       ry="0.45536557" />
    <ellipse
       style="fill:#0000ff;fill-opacity:1;stroke:#000000;stroke-width:0.0634411;stroke-dasharray:none;stroke-opacity:1"
       id="ellipse5616"
       cx="328.40015"
       cy="44.04398"
       rx="0.46827942"
       ry="0.45536557" />
    <ellipse
       style="fill:#0000ff;fill-opacity:1;stroke:#000000;stroke-width:0.0634411;stroke-dasharray:none;stroke-opacity:1"
       id="ellipse5620"
       cx="345.37329"
       cy="44.04398"
       rx="0.46827942"
       ry="0.45536557" />
    <ellipse
       style="fill:#0000ff;fill-opacity:1;stroke:#000000;stroke-width:0.0634411;stroke-dasharray:none;stroke-opacity:1"
       id="ellipse5624"
       cx="361.38403"
       cy="44.04398"
       rx="0.46827942"
       ry="0.45536557" />
    <ellipse
       style="fill:#0000ff;fill-opacity:1;stroke:#000000;stroke-width:0.063441;stroke-dasharray:none;stroke-opacity:1"
       id="ellipse5628"
       cx="377.39481"
       cy="44.04398"
       rx="0.46827763"
       ry="0.45536557" />
    <ellipse
       style="fill:#0000ff;fill-opacity:1;stroke:#000000;stroke-width:0.0634411;stroke-dasharray:none;stroke-opacity:1"
       id="ellipse5648"
       cx="328.40015"
       cy="60.051357"
       rx="0.46827942"
       ry="0.45536557" />
    <ellipse
       style="fill:#0000ff;fill-opacity:1;stroke:#000000;stroke-width:0.0634411;stroke-dasharray:none;stroke-opacity:1"
       id="ellipse5652"
       cx="345.37329"
       cy="60.051357"
       rx="0.46827942"
       ry="0.45536557" />
    <ellipse
       style="fill:#0000ff;fill-opacity:1;stroke:#000000;stroke-width:0.0634411;stroke-dasharray:none;stroke-opacity:1"
       id="ellipse5656"
       cx="361.38403"
       cy="60.051357"
       rx="0.46827942"
       ry="0.45536557" />
    <ellipse
       style="fill:#0000ff;fill-opacity:1;stroke:#000000;stroke-width:0.063441;stroke-dasharray:none;stroke-opacity:1"
       id="ellipse5660"
       cx="377.39481"
       cy="60.051357"
       rx="0.46827763"
       ry="0.45536557" />
    <g
       inkscape:label=""
       transform="translate(72.946239,30.086841)"
       id="g17785"
       style="fill:#00ffff">
      <g
         clip-path="url(#clipPath5425)"
         id="g17"
         transform="matrix(0.352778,0,0,0.352778,-0.170877,0.0418483)"
         style="fill:#00ffff">
        <g
           fill="#000000"
           fill-opacity="1"
           id="g15"
           style="fill:#00ffff">
          <g
             id="use13"
             transform="translate(0,5.1469998)"
             style="fill:#00ffff">
            <path
               d="M 3.6471801,2.7240041 C 3.4294655,2.7027462 3.3206082,2.6921172 3.1343624,2.830925 3.0520519,2.869986 2.9094225,3.0444512 2.8912014,3.2310637 2.868425,3.4643294 3.0243023,3.6365425 3.257568,3.6593189 3.5374868,3.6866505 3.8883535,3.4697207 3.9339063,3.0031893 3.990088,2.4278007 3.4883173,1.9392265 2.6641118,1.8587501 1.1090073,1.7069076 -0.61160548,3.2501291 -0.77711373,4.9451931 -0.87732973,5.9715621 -0.33236076,6.9824313 0.88062078,7.1008683 2.4979295,7.2587845 3.6472909,6.0993658 3.6624751,5.9438553 3.6700672,5.8661001 3.5983857,5.7963038 3.5517326,5.7917485 3.5206305,5.7887117 3.503561,5.8027443 3.3840747,5.9009727 2.5233759,6.8373878 1.386998,6.8991228 0.92046662,6.85357 0.11181226,6.774612 -0.08270799,6.0334507 -0.02500787,5.442511 0.01598958,5.0226327 0.33051657,3.8915949 0.82935286,3.123938 1.195037,2.5944688 1.9104363,2.0206498 2.6568865,2.0935342 c 0.1555105,0.015184 0.807136,0.094509 0.9902936,0.6304699 z m 0,0"
               id="path23"
               style="fill:#00ffff" />
          </g>
        </g>
      </g>
    </g>
    <path
       style="fill:#000000;fill-opacity:0.2;stroke:#000000;stroke-width:1;stroke-dasharray:none;stroke-opacity:1;marker-end:url(#TriangleStart)"
       d="M 353.11654,65.46069 321.76153,84.542655"
       id="path47244"
       sodipodi:nodetypes="cc" />
    <text
       xml:space="preserve"
       style="font-size:8.46667px;font-family:Calibri;-inkscape-font-specification:Calibri;fill:#000000;fill-opacity:1;stroke:none;stroke-width:0.2;stroke-dasharray:none;stroke-opacity:1"
       x="277.66409"
       y="148.69646"
       id="text70186"><tspan
         sodipodi:role="line"
         id="tspan70184"
         style="font-size:8.46667px;fill:#000000;fill-opacity:1;stroke-width:0.2"
         x="277.66409"
         y="148.69646">infeasible</tspan></text>
    <ellipse
       style="fill:#ff0000;fill-opacity:1;stroke:#000000;stroke-width:0.102944;stroke-dasharray:none;stroke-opacity:1"
       id="ellipse46950"
       cx="328.91306"
       cy="24.280106"
       rx="0.72715902"
       ry="0.77214456" />
    <g
       inkscape:label=""
       transform="translate(330.31863,20.79866)"
       id="g47077"
       style="fill:#ff0000">
      <g
         fill="#000000"
         fill-opacity="1"
         id="g19"
         transform="matrix(0.352778,0,0,0.352778,-0.115755,-0.001808)"
         style="fill:#ff0000">
        <g
           id="use17"
           transform="translate(0.72500002,8.302)"
           style="fill:#ff0000">
          <path
             d="m 2.921875,-8.296875 -1.5625,1.625 0.1875,0.1875 1.375,-1.234375 1.375,1.234375 0.1875,-0.1875 z m 0,0"
             id="path31"
             style="fill:#ff0000" />
        </g>
      </g>
      <g
         clip-path="url(#clipPath7501)"
         id="g25"
         transform="matrix(0.352778,0,0,0.352778,-0.115755,-0.001808)"
         style="fill:#ff0000">
        <g
           fill="#000000"
           fill-opacity="1"
           id="g23"
           style="fill:#ff0000">
          <g
             id="use21"
             transform="translate(0,8.302)"
             style="fill:#ff0000">
            <path
               d="m 5.671875,-4.875 c -0.390625,0.0625 -0.53125,0.359375 -0.53125,0.578125 0,0.296875 0.21875,0.390625 0.390625,0.390625 0.359375,0 0.609375,-0.3125 0.609375,-0.640625 0,-0.5 -0.578125,-0.71875 -1.078125,-0.71875 -0.71875,0 -1.125,0.71875 -1.234375,0.9375 -0.28125,-0.890625 -1.015625,-0.9375 -1.234375,-0.9375 -1.21875,0 -1.859375,1.5625 -1.859375,1.828125 0,0.046875 0.046875,0.109375 0.125,0.109375 0.09375,0 0.125,-0.078125 0.140625,-0.125 0.40625,-1.328125 1.21875,-1.578125 1.5625,-1.578125 0.53125,0 0.640625,0.5 0.640625,0.78125 0,0.265625 -0.078125,0.546875 -0.21875,1.125 L 2.578125,-1.5 c -0.171875,0.71875 -0.515625,1.375 -1.15625,1.375 -0.0625,0 -0.359375,0 -0.609375,-0.15625 C 1.25,-0.359375 1.34375,-0.71875 1.34375,-0.859375 1.34375,-1.09375 1.15625,-1.25 0.9375,-1.25 c -0.296875,0 -0.609375,0.265625 -0.609375,0.640625 0,0.5 0.5625,0.734375 1.078125,0.734375 0.578125,0 0.984375,-0.453125 1.234375,-0.953125 C 2.828125,-0.125 3.4375,0.125 3.875,0.125 5.09375,0.125 5.734375,-1.453125 5.734375,-1.703125 5.734375,-1.765625 5.6875,-1.8125 5.625,-1.8125 5.515625,-1.8125 5.5,-1.75 5.46875,-1.65625 5.140625,-0.609375 4.453125,-0.125 3.90625,-0.125 3.484375,-0.125 3.265625,-0.4375 3.265625,-0.921875 3.265625,-1.1875 3.3125,-1.375 3.5,-2.15625 L 3.921875,-3.796875 C 4.09375,-4.5 4.5,-5.03125 5.0625,-5.03125 c 0.015625,0 0.359375,0 0.609375,0.15625 z m 0,0"
               id="path35"
               style="fill:#ff0000" />
          </g>
        </g>
      </g>
    </g>
    <ellipse
       style="fill:#0000ff;fill-opacity:1;stroke:#000000;stroke-width:0.0634411;stroke-dasharray:none;stroke-opacity:1"
       id="ellipse82037"
       cx="270.38754"
       cy="90.883041"
       rx="0.46827942"
       ry="0.45536557" />
    <ellipse
       style="fill:#0000ff;fill-opacity:1;stroke:#000000;stroke-width:0.0634411;stroke-dasharray:none;stroke-opacity:1"
       id="ellipse82039"
       cx="287.36069"
       cy="90.883041"
       rx="0.46827942"
       ry="0.45536557" />
    <ellipse
       style="fill:#0000ff;fill-opacity:1;stroke:#000000;stroke-width:0.0634411;stroke-dasharray:none;stroke-opacity:1"
       id="ellipse82041"
       cx="303.37143"
       cy="90.883041"
       rx="0.46827942"
       ry="0.45536557" />
    <ellipse
       style="fill:#0000ff;fill-opacity:1;stroke:#000000;stroke-width:0.063441;stroke-dasharray:none;stroke-opacity:1"
       id="ellipse82043"
       cx="319.3822"
       cy="90.883041"
       rx="0.46827763"
       ry="0.45536557" />
    <ellipse
       style="fill:#0000ff;fill-opacity:1;stroke:#000000;stroke-width:0.0634411;stroke-dasharray:none;stroke-opacity:1"
       id="ellipse82045"
       cx="270.38754"
       cy="106.89042"
       rx="0.46827942"
       ry="0.45536557" />
    <ellipse
       style="fill:#0000ff;fill-opacity:1;stroke:#000000;stroke-width:0.0634411;stroke-dasharray:none;stroke-opacity:1"
       id="ellipse82047"
       cx="287.36069"
       cy="106.89042"
       rx="0.46827942"
       ry="0.45536557" />
    <ellipse
       style="fill:#0000ff;fill-opacity:1;stroke:#000000;stroke-width:0.0634411;stroke-dasharray:none;stroke-opacity:1"
       id="ellipse82049"
       cx="303.37143"
       cy="106.89042"
       rx="0.46827942"
       ry="0.45536557" />
    <ellipse
       style="fill:#0000ff;fill-opacity:1;stroke:#000000;stroke-width:0.063441;stroke-dasharray:none;stroke-opacity:1"
       id="ellipse82051"
       cx="319.3822"
       cy="106.89042"
       rx="0.46827763"
       ry="0.45536557" />
    <ellipse
       style="fill:#0000ff;fill-opacity:1;stroke:#000000;stroke-width:0.0634411;stroke-dasharray:none;stroke-opacity:1"
       id="ellipse82053"
       cx="270.38754"
       cy="122.8978"
       rx="0.46827942"
       ry="0.45536557" />
    <ellipse
       style="fill:#0000ff;fill-opacity:1;stroke:#000000;stroke-width:0.0634411;stroke-dasharray:none;stroke-opacity:1"
       id="ellipse82055"
       cx="287.36069"
       cy="122.8978"
       rx="0.46827942"
       ry="0.45536557" />
    <ellipse
       style="fill:#0000ff;fill-opacity:1;stroke:#000000;stroke-width:0.0634411;stroke-dasharray:none;stroke-opacity:1"
       id="ellipse82057"
       cx="303.37143"
       cy="122.8978"
       rx="0.46827942"
       ry="0.45536557" />
    <ellipse
       style="fill:#0000ff;fill-opacity:1;stroke:#000000;stroke-width:0.063441;stroke-dasharray:none;stroke-opacity:1"
       id="ellipse82059"
       cx="319.3822"
       cy="122.8978"
       rx="0.46827763"
       ry="0.45536557" />
    <ellipse
       style="fill:#0000ff;fill-opacity:1;stroke:#000000;stroke-width:0.0634411;stroke-dasharray:none;stroke-opacity:1"
       id="ellipse82061"
       cx="270.38754"
       cy="138.90518"
       rx="0.46827942"
       ry="0.45536557" />
    <ellipse
       style="fill:#0000ff;fill-opacity:1;stroke:#000000;stroke-width:0.0634411;stroke-dasharray:none;stroke-opacity:1"
       id="ellipse82063"
       cx="287.36069"
       cy="138.90518"
       rx="0.46827942"
       ry="0.45536557" />
    <ellipse
       style="fill:#0000ff;fill-opacity:1;stroke:#000000;stroke-width:0.0634411;stroke-dasharray:none;stroke-opacity:1"
       id="ellipse82065"
       cx="303.37143"
       cy="138.90518"
       rx="0.46827942"
       ry="0.45536557" />
    <ellipse
       style="fill:#0000ff;fill-opacity:1;stroke:#000000;stroke-width:0.063441;stroke-dasharray:none;stroke-opacity:1"
       id="ellipse82067"
       cx="319.3822"
       cy="138.90518"
       rx="0.46827763"
       ry="0.45536557" />
    <path
       style="fill:#00ff00;fill-opacity:0.2;stroke:#00ffff;stroke-width:0.5;stroke-dasharray:0.5, 1.5;stroke-dashoffset:0;stroke-opacity:1"
       d="m 336.54035,11.542135 6.16219,48.996308"
       id="path89963"
       sodipodi:nodetypes="cc" />
    <path
       style="fill:#00ff00;fill-opacity:0.2;stroke:#00ffff;stroke-width:0.5;stroke-dasharray:0.5, 1.5;stroke-dashoffset:0;stroke-opacity:1"
       d="m 364.84312,10.567963 6.16219,48.996308"
       id="path90289"
       sodipodi:nodetypes="cc" />
    <path
       style="fill:#00ff00;fill-opacity:0.2;stroke:#00ffff;stroke-width:0.5;stroke-dasharray:0.5, 1.5;stroke-dashoffset:0;stroke-opacity:1"
       d="m 280.56055,90.39596 6.16219,48.99631"
       id="path90291"
       sodipodi:nodetypes="cc" />
    <path
       style="fill:#00ff00;fill-opacity:0.2;stroke:#00ffff;stroke-width:0.5;stroke-dasharray:0.5, 1.5;stroke-dashoffset:0;stroke-opacity:1"
       d="m 308.86332,89.421788 6.16219,48.996312"
       id="path90293"
       sodipodi:nodetypes="cc" />
  </g>
</svg>
