<?xml version="1.0" encoding="UTF-8" standalone="no"?>
<!-- Created with Inkscape (http://www.inkscape.org/) -->

<svg
   width="128mm"
   height="48mm"
   viewBox="0 0 128 47.999999"
   version="1.1"
   id="svg37558"
   inkscape:version="1.2.2 (732a01da63, 2022-12-09)"
   sodipodi:docname="branch.svg"
   xmlns:inkscape="http://www.inkscape.org/namespaces/inkscape"
   xmlns:sodipodi="http://sodipodi.sourceforge.net/DTD/sodipodi-0.dtd"
   xmlns="http://www.w3.org/2000/svg"
   xmlns:svg="http://www.w3.org/2000/svg">
  <sodipodi:namedview
     id="namedview37560"
     pagecolor="#ffffff"
     bordercolor="#000000"
     borderopacity="0.25"
     inkscape:showpageshadow="2"
     inkscape:pageopacity="0.0"
     inkscape:pagecheckerboard="0"
     inkscape:deskcolor="#d1d1d1"
     inkscape:document-units="mm"
     showgrid="false"
     inkscape:zoom="1.4770342"
     inkscape:cx="92.753438"
     inkscape:cy="146.239"
     inkscape:window-width="1920"
     inkscape:window-height="1009"
     inkscape:window-x="-8"
     inkscape:window-y="-8"
     inkscape:window-maximized="1"
     inkscape:current-layer="layer1" />
  <defs
     id="defs37555">
    <marker
       style="overflow:visible"
       id="Arrow1L"
       refX="0"
       refY="0"
       orient="auto-start-reverse"
       inkscape:stockid="Arrow1L"
       markerWidth="8.75"
       markerHeight="5"
       viewBox="0 0 8.75 5"
       inkscape:isstock="true"
       inkscape:collect="always"
       preserveAspectRatio="xMidYMid">
      <path
         style="fill:context-stroke;fill-rule:evenodd;stroke:none"
         d="M 0,0 5,-5 -12.5,0 5,5 Z"
         id="arrow1L"
         transform="scale(-0.5)" />
    </marker>
    <clipPath
       id="clipPath9973">
      <path
         clip-rule="nonzero"
         d="M 14,14 H 43 V 28.835938 H 14 Z m 0,0"
         id="path6578" />
    </clipPath>
    <clipPath
       id="clipPath9062">
      <path
         clip-rule="nonzero"
         d="m 7,5 h 12 v 6.066406 H 7 Z m 0,0"
         id="path4863" />
    </clipPath>
    <clipPath
       id="clipPath1590">
      <path
         clip-rule="nonzero"
         d="m 7,5 h 9 v 6.066406 H 7 Z m 0,0"
         id="path7390" />
    </clipPath>
    <clipPath
       id="clipPath2948">
      <path
         clip-rule="nonzero"
         d="m 15,5 h 5 v 6.066406 h -5 z m 0,0"
         id="path7932" />
    </clipPath>
    <clipPath
       id="clipPath7494">
      <path
         clip-rule="nonzero"
         d="m 20,5 h 12 v 6.066406 H 20 Z m 0,0"
         id="path9555" />
    </clipPath>
    <clipPath
       id="clipPath3567">
      <path
         clip-rule="nonzero"
         d="M 0,0 H 34 V 11.988281 H 0 Z m 0,0"
         id="path1464" />
    </clipPath>
    <clipPath
       id="clipPath9450">
      <path
         clip-rule="nonzero"
         d="m 41,6 h 13 v 5.988281 H 41 Z m 0,0"
         id="path8909" />
    </clipPath>
    <clipPath
       id="clipPath243">
      <path
         clip-rule="nonzero"
         d="m 54,0 h 4 v 11.988281 h -4 z m 0,0"
         id="path9050" />
    </clipPath>
    <clipPath
       id="clipPath5425">
      <path
         clip-rule="nonzero"
         d="M 0,0 H 5 V 5.148438 H 0 Z m 0,0"
         id="path3411" />
    </clipPath>
    <clipPath
       id="clipPath631">
      <path
         clip-rule="nonzero"
         d="m 24,0 h 4 v 11.953125 h -4 z m 0,0"
         id="path1961" />
    </clipPath>
    <clipPath
       id="clipPath1265">
      <path
         clip-rule="nonzero"
         d="m 34,5 h 3.9375 v 6 H 34 Z m 0,0"
         id="path877" />
    </clipPath>
    <clipPath
       id="clipPath3856">
      <path
         clip-rule="nonzero"
         d="m 24,0 h 4 v 11.953125 h -4 z m 0,0"
         id="path5688" />
    </clipPath>
    <clipPath
       id="clipPath1112">
      <path
         clip-rule="nonzero"
         d="m 38,0 h 4 v 11.953125 h -4 z m 0,0"
         id="path1966" />
    </clipPath>
    <clipPath
       id="clipPath5377">
      <path
         clip-rule="nonzero"
         d="m 24,0 h 4 v 11.953125 h -4 z m 0,0"
         id="path4896" />
    </clipPath>
    <clipPath
       id="clipPath8547">
      <path
         clip-rule="nonzero"
         d="m 38,0 h 4 v 11.953125 h -4 z m 0,0"
         id="path1781" />
    </clipPath>
    <clipPath
       id="clipPath2023">
      <path
         clip-rule="nonzero"
         d="M 0,3 H 6.652344 V 8.300781 H 0 Z m 0,0"
         id="path5248" />
    </clipPath>
  </defs>
  <g
     inkscape:label="Ebene 1"
     inkscape:groupmode="layer"
     id="layer1"
     transform="translate(-16.3307, -6.49546)">
    <path
       style="fill:#00ff00;fill-opacity:0.2;stroke:#000000;stroke-width:0.2;stroke-dasharray:none;stroke-opacity:1"
       d="m 140.97566,47.608479 -14.0487,-28.784905 0,25.671413 z"
       id="path21819"
       sodipodi:nodetypes="cccc" />
    <path
       style="fill:#00ff00;fill-opacity:0.2;stroke:#000000;stroke-width:0.2;stroke-dasharray:none;stroke-opacity:1"
       d="M 94.443068,37.126944 118.92159,13.615937 v 29.019301 z"
       id="path21817" />
    <ellipse
       style="fill:#0000ff;fill-opacity:1;stroke:#000000;stroke-width:0.0634411;stroke-dasharray:none;stroke-opacity:1"
       id="path3632"
       cx="18.830673"
       cy="8.9825468"
       rx="0.46827942"
       ry="0.45536557" />
    <path
       style="fill:#00ff00;fill-opacity:0.2;stroke:#000000;stroke-width:0.2;stroke-dasharray:none;stroke-opacity:1"
       d="M 19.330673,38.185934 47.518811,11.017143 65.802694,48.51391 Z"
       id="path4244"
       sodipodi:nodetypes="cccc" />
    <ellipse
       style="fill:#0000ff;fill-opacity:1;stroke:#000000;stroke-width:0.0634411;stroke-dasharray:none;stroke-opacity:1"
       id="ellipse5554"
       cx="27.798437"
       cy="8.9825468"
       rx="0.468279"
       ry="0.45536557" />
    <ellipse
       style="fill:#0000ff;fill-opacity:1;stroke:#000000;stroke-width:0.0634411;stroke-dasharray:none;stroke-opacity:1"
       id="ellipse5556"
       cx="35.80381"
       cy="8.9825468"
       rx="0.46827942"
       ry="0.45536557" />
    <ellipse
       style="fill:#0000ff;fill-opacity:1;stroke:#000000;stroke-width:0.0634411;stroke-dasharray:none;stroke-opacity:1"
       id="ellipse5558"
       cx="43.809185"
       cy="8.9825468"
       rx="0.46827942"
       ry="0.45536557" />
    <ellipse
       style="fill:#0000ff;fill-opacity:1;stroke:#000000;stroke-width:0.0634411;stroke-dasharray:none;stroke-opacity:1"
       id="ellipse5560"
       cx="51.814556"
       cy="8.9825468"
       rx="0.46827942"
       ry="0.45536557" />
    <ellipse
       style="fill:#0000ff;fill-opacity:1;stroke:#000000;stroke-width:0.0634411;stroke-dasharray:none;stroke-opacity:1"
       id="ellipse5562"
       cx="59.819931"
       cy="8.9825468"
       rx="0.46827942"
       ry="0.45536557" />
    <ellipse
       style="fill:#0000ff;fill-opacity:1;stroke:#000000;stroke-width:0.063441;stroke-dasharray:none;stroke-opacity:1"
       id="ellipse5564"
       cx="67.82531"
       cy="8.9825468"
       rx="0.46827763"
       ry="0.45536557" />
    <ellipse
       style="fill:#0000ff;fill-opacity:1;stroke:#000000;stroke-width:0.0634411;stroke-dasharray:none;stroke-opacity:1"
       id="ellipse5568"
       cx="18.830673"
       cy="16.986237"
       rx="0.46827942"
       ry="0.45536557" />
    <ellipse
       style="fill:#0000ff;fill-opacity:1;stroke:#000000;stroke-width:0.0634411;stroke-dasharray:none;stroke-opacity:1"
       id="ellipse5570"
       cx="27.798437"
       cy="16.986237"
       rx="0.468279"
       ry="0.45536557" />
    <ellipse
       style="fill:#0000ff;fill-opacity:1;stroke:#000000;stroke-width:0.0634411;stroke-dasharray:none;stroke-opacity:1"
       id="ellipse5572"
       cx="35.80381"
       cy="16.986237"
       rx="0.46827942"
       ry="0.45536557" />
    <ellipse
       style="fill:#0000ff;fill-opacity:1;stroke:#000000;stroke-width:0.0634411;stroke-dasharray:none;stroke-opacity:1"
       id="ellipse5574"
       cx="43.809185"
       cy="16.986237"
       rx="0.46827942"
       ry="0.45536557" />
    <ellipse
       style="fill:#0000ff;fill-opacity:1;stroke:#000000;stroke-width:0.0634411;stroke-dasharray:none;stroke-opacity:1"
       id="ellipse5576"
       cx="51.814556"
       cy="16.986237"
       rx="0.46827942"
       ry="0.45536557" />
    <ellipse
       style="fill:#0000ff;fill-opacity:1;stroke:#000000;stroke-width:0.0634411;stroke-dasharray:none;stroke-opacity:1"
       id="ellipse5578"
       cx="59.819931"
       cy="16.986237"
       rx="0.46827942"
       ry="0.45536557" />
    <ellipse
       style="fill:#0000ff;fill-opacity:1;stroke:#000000;stroke-width:0.063441;stroke-dasharray:none;stroke-opacity:1"
       id="ellipse5580"
       cx="67.82531"
       cy="16.986237"
       rx="0.46827763"
       ry="0.45536557" />
    <ellipse
       style="fill:#0000ff;fill-opacity:1;stroke:#000000;stroke-width:0.0634411;stroke-dasharray:none;stroke-opacity:1"
       id="ellipse5584"
       cx="18.830673"
       cy="24.989925"
       rx="0.46827942"
       ry="0.45536557" />
    <ellipse
       style="fill:#0000ff;fill-opacity:1;stroke:#000000;stroke-width:0.0634411;stroke-dasharray:none;stroke-opacity:1"
       id="ellipse5586"
       cx="27.798437"
       cy="24.989925"
       rx="0.468279"
       ry="0.45536557" />
    <ellipse
       style="fill:#0000ff;fill-opacity:1;stroke:#000000;stroke-width:0.0634411;stroke-dasharray:none;stroke-opacity:1"
       id="ellipse5588"
       cx="35.80381"
       cy="24.989925"
       rx="0.46827942"
       ry="0.45536557" />
    <ellipse
       style="fill:#0000ff;fill-opacity:1;stroke:#000000;stroke-width:0.0634411;stroke-dasharray:none;stroke-opacity:1"
       id="ellipse5590"
       cx="43.809185"
       cy="24.989925"
       rx="0.46827942"
       ry="0.45536557" />
    <ellipse
       style="fill:#0000ff;fill-opacity:1;stroke:#000000;stroke-width:0.0634411;stroke-dasharray:none;stroke-opacity:1"
       id="ellipse5592"
       cx="51.814556"
       cy="24.989925"
       rx="0.46827942"
       ry="0.45536557" />
    <ellipse
       style="fill:#0000ff;fill-opacity:1;stroke:#000000;stroke-width:0.0634411;stroke-dasharray:none;stroke-opacity:1"
       id="ellipse5594"
       cx="59.819931"
       cy="24.989925"
       rx="0.46827942"
       ry="0.45536557" />
    <ellipse
       style="fill:#0000ff;fill-opacity:1;stroke:#000000;stroke-width:0.063441;stroke-dasharray:none;stroke-opacity:1"
       id="ellipse5596"
       cx="67.82531"
       cy="24.989925"
       rx="0.46827763"
       ry="0.45536557" />
    <ellipse
       style="fill:#0000ff;fill-opacity:1;stroke:#000000;stroke-width:0.0634411;stroke-dasharray:none;stroke-opacity:1"
       id="ellipse5600"
       cx="18.830673"
       cy="32.993614"
       rx="0.46827942"
       ry="0.45536557" />
    <ellipse
       style="fill:#0000ff;fill-opacity:1;stroke:#000000;stroke-width:0.0634411;stroke-dasharray:none;stroke-opacity:1"
       id="ellipse5602"
       cx="27.798437"
       cy="32.993614"
       rx="0.468279"
       ry="0.45536557" />
    <ellipse
       style="fill:#0000ff;fill-opacity:1;stroke:#000000;stroke-width:0.0634411;stroke-dasharray:none;stroke-opacity:1"
       id="ellipse5604"
       cx="35.80381"
       cy="32.993614"
       rx="0.46827942"
       ry="0.45536557" />
    <ellipse
       style="fill:#0000ff;fill-opacity:1;stroke:#000000;stroke-width:0.0634411;stroke-dasharray:none;stroke-opacity:1"
       id="ellipse5606"
       cx="43.809185"
       cy="32.993614"
       rx="0.46827942"
       ry="0.45536557" />
    <ellipse
       style="fill:#0000ff;fill-opacity:1;stroke:#000000;stroke-width:0.0634411;stroke-dasharray:none;stroke-opacity:1"
       id="ellipse5608"
       cx="51.814556"
       cy="32.993614"
       rx="0.46827942"
       ry="0.45536557" />
    <ellipse
       style="fill:#0000ff;fill-opacity:1;stroke:#000000;stroke-width:0.0634411;stroke-dasharray:none;stroke-opacity:1"
       id="ellipse5610"
       cx="59.819931"
       cy="32.993614"
       rx="0.46827942"
       ry="0.45536557" />
    <ellipse
       style="fill:#0000ff;fill-opacity:1;stroke:#000000;stroke-width:0.063441;stroke-dasharray:none;stroke-opacity:1"
       id="ellipse5612"
       cx="67.82531"
       cy="32.993614"
       rx="0.46827763"
       ry="0.45536557" />
    <ellipse
       style="fill:#0000ff;fill-opacity:1;stroke:#000000;stroke-width:0.0634411;stroke-dasharray:none;stroke-opacity:1"
       id="ellipse5616"
       cx="18.830673"
       cy="40.997307"
       rx="0.46827942"
       ry="0.45536557" />
    <ellipse
       style="fill:#0000ff;fill-opacity:1;stroke:#000000;stroke-width:0.0634411;stroke-dasharray:none;stroke-opacity:1"
       id="ellipse5618"
       cx="27.798437"
       cy="40.997307"
       rx="0.468279"
       ry="0.45536557" />
    <ellipse
       style="fill:#0000ff;fill-opacity:1;stroke:#000000;stroke-width:0.0634411;stroke-dasharray:none;stroke-opacity:1"
       id="ellipse5620"
       cx="35.80381"
       cy="40.997307"
       rx="0.46827942"
       ry="0.45536557" />
    <ellipse
       style="fill:#0000ff;fill-opacity:1;stroke:#000000;stroke-width:0.0634411;stroke-dasharray:none;stroke-opacity:1"
       id="ellipse5622"
       cx="43.809185"
       cy="40.997307"
       rx="0.46827942"
       ry="0.45536557" />
    <ellipse
       style="fill:#0000ff;fill-opacity:1;stroke:#000000;stroke-width:0.0634411;stroke-dasharray:none;stroke-opacity:1"
       id="ellipse5624"
       cx="51.814556"
       cy="40.997307"
       rx="0.46827942"
       ry="0.45536557" />
    <ellipse
       style="fill:#0000ff;fill-opacity:1;stroke:#000000;stroke-width:0.0634411;stroke-dasharray:none;stroke-opacity:1"
       id="ellipse5626"
       cx="59.819931"
       cy="40.997307"
       rx="0.46827942"
       ry="0.45536557" />
    <ellipse
       style="fill:#0000ff;fill-opacity:1;stroke:#000000;stroke-width:0.063441;stroke-dasharray:none;stroke-opacity:1"
       id="ellipse5628"
       cx="67.82531"
       cy="40.997307"
       rx="0.46827763"
       ry="0.45536557" />
    <ellipse
       style="fill:#0000ff;fill-opacity:1;stroke:#000000;stroke-width:0.0634411;stroke-dasharray:none;stroke-opacity:1"
       id="ellipse5632"
       cx="18.830673"
       cy="49.000996"
       rx="0.46827942"
       ry="0.45536557" />
    <ellipse
       style="fill:#0000ff;fill-opacity:1;stroke:#000000;stroke-width:0.0634411;stroke-dasharray:none;stroke-opacity:1"
       id="ellipse5634"
       cx="27.798437"
       cy="49.000996"
       rx="0.468279"
       ry="0.45536557" />
    <ellipse
       style="fill:#0000ff;fill-opacity:1;stroke:#000000;stroke-width:0.0634411;stroke-dasharray:none;stroke-opacity:1"
       id="ellipse5636"
       cx="35.80381"
       cy="49.000996"
       rx="0.46827942"
       ry="0.45536557" />
    <ellipse
       style="fill:#0000ff;fill-opacity:1;stroke:#000000;stroke-width:0.0634411;stroke-dasharray:none;stroke-opacity:1"
       id="ellipse5638"
       cx="43.809185"
       cy="49.000996"
       rx="0.46827942"
       ry="0.45536557" />
    <ellipse
       style="fill:#0000ff;fill-opacity:1;stroke:#000000;stroke-width:0.0634411;stroke-dasharray:none;stroke-opacity:1"
       id="ellipse5640"
       cx="51.814556"
       cy="49.000996"
       rx="0.46827942"
       ry="0.45536557" />
    <ellipse
       style="fill:#0000ff;fill-opacity:1;stroke:#000000;stroke-width:0.0634411;stroke-dasharray:none;stroke-opacity:1"
       id="ellipse5642"
       cx="59.819931"
       cy="49.000996"
       rx="0.46827942"
       ry="0.45536557" />
    <ellipse
       style="fill:#0000ff;fill-opacity:1;stroke:#000000;stroke-width:0.063441;stroke-dasharray:none;stroke-opacity:1"
       id="ellipse5644"
       cx="67.82531"
       cy="49.000996"
       rx="0.46827763"
       ry="0.45536557" />
    <path
       style="fill:#11ff00;fill-opacity:0.2;stroke:#00ffff;stroke-width:0.2;stroke-dasharray:1.2, 1.2;stroke-dashoffset:0;stroke-opacity:1"
       d="m -13.672026,48.060666 -52.99337,10.152618"
       id="path8801"
       sodipodi:nodetypes="cc" />
    <ellipse
       style="fill:#ff0000;fill-opacity:1;stroke:#000000;stroke-width:0.128554;stroke-dasharray:none;stroke-opacity:1"
       id="ellipse8809"
       cx="47.500332"
       cy="11.033259"
       rx="0.93572325"
       ry="0.93572319" />
    <ellipse
       style="fill:#0000ff;fill-opacity:1;stroke:#000000;stroke-width:0.0634411;stroke-dasharray:none;stroke-opacity:1"
       id="ellipse21677"
       cx="93.943069"
       cy="8.0083742"
       rx="0.46827942"
       ry="0.45536557" />
    <path
       style="fill:none;fill-opacity:0.2;stroke:#000000;stroke-width:0.1;stroke-dasharray:0.4,0.1;stroke-opacity:1;stroke-dashoffset:0"
       d="M 94.443071,37.211762 122.63121,10.042971 140.91509,47.539738 Z"
       id="path21679"
       sodipodi:nodetypes="cccc" />
    <ellipse
       style="fill:#0000ff;fill-opacity:1;stroke:#000000;stroke-width:0.0634411;stroke-dasharray:none;stroke-opacity:1"
       id="ellipse21681"
       cx="102.91084"
       cy="8.0083742"
       rx="0.468279"
       ry="0.45536557" />
    <ellipse
       style="fill:#0000ff;fill-opacity:1;stroke:#000000;stroke-width:0.0634411;stroke-dasharray:none;stroke-opacity:1"
       id="ellipse21683"
       cx="110.91621"
       cy="8.0083742"
       rx="0.46827942"
       ry="0.45536557" />
    <ellipse
       style="fill:#0000ff;fill-opacity:1;stroke:#000000;stroke-width:0.0634411;stroke-dasharray:none;stroke-opacity:1"
       id="ellipse21685"
       cx="118.92159"
       cy="8.0083742"
       rx="0.46827942"
       ry="0.45536557" />
    <ellipse
       style="fill:#0000ff;fill-opacity:1;stroke:#000000;stroke-width:0.0634411;stroke-dasharray:none;stroke-opacity:1"
       id="ellipse21687"
       cx="126.92696"
       cy="8.0083742"
       rx="0.46827942"
       ry="0.45536557" />
    <ellipse
       style="fill:#0000ff;fill-opacity:1;stroke:#000000;stroke-width:0.0634411;stroke-dasharray:none;stroke-opacity:1"
       id="ellipse21689"
       cx="134.93233"
       cy="8.0083742"
       rx="0.46827942"
       ry="0.45536557" />
    <ellipse
       style="fill:#0000ff;fill-opacity:1;stroke:#000000;stroke-width:0.063441;stroke-dasharray:none;stroke-opacity:1"
       id="ellipse21691"
       cx="142.93771"
       cy="8.0083742"
       rx="0.46827763"
       ry="0.45536557" />
    <ellipse
       style="fill:#0000ff;fill-opacity:1;stroke:#000000;stroke-width:0.0634411;stroke-dasharray:none;stroke-opacity:1"
       id="ellipse21693"
       cx="93.943069"
       cy="16.012064"
       rx="0.46827942"
       ry="0.45536557" />
    <ellipse
       style="fill:#0000ff;fill-opacity:1;stroke:#000000;stroke-width:0.0634411;stroke-dasharray:none;stroke-opacity:1"
       id="ellipse21695"
       cx="102.91084"
       cy="16.012064"
       rx="0.468279"
       ry="0.45536557" />
    <ellipse
       style="fill:#0000ff;fill-opacity:1;stroke:#000000;stroke-width:0.0634411;stroke-dasharray:none;stroke-opacity:1"
       id="ellipse21697"
       cx="110.91621"
       cy="16.012064"
       rx="0.46827942"
       ry="0.45536557" />
    <ellipse
       style="fill:#0000ff;fill-opacity:1;stroke:#000000;stroke-width:0.0634411;stroke-dasharray:none;stroke-opacity:1"
       id="ellipse21699"
       cx="118.92159"
       cy="16.012064"
       rx="0.46827942"
       ry="0.45536557" />
    <ellipse
       style="fill:#0000ff;fill-opacity:1;stroke:#000000;stroke-width:0.0634411;stroke-dasharray:none;stroke-opacity:1"
       id="ellipse21701"
       cx="126.92696"
       cy="16.012064"
       rx="0.46827942"
       ry="0.45536557" />
    <ellipse
       style="fill:#0000ff;fill-opacity:1;stroke:#000000;stroke-width:0.0634411;stroke-dasharray:none;stroke-opacity:1"
       id="ellipse21703"
       cx="134.93233"
       cy="16.012064"
       rx="0.46827942"
       ry="0.45536557" />
    <ellipse
       style="fill:#0000ff;fill-opacity:1;stroke:#000000;stroke-width:0.063441;stroke-dasharray:none;stroke-opacity:1"
       id="ellipse21705"
       cx="142.93771"
       cy="16.012064"
       rx="0.46827763"
       ry="0.45536557" />
    <ellipse
       style="fill:#0000ff;fill-opacity:1;stroke:#000000;stroke-width:0.0634411;stroke-dasharray:none;stroke-opacity:1"
       id="ellipse21707"
       cx="93.943069"
       cy="24.015753"
       rx="0.46827942"
       ry="0.45536557" />
    <ellipse
       style="fill:#0000ff;fill-opacity:1;stroke:#000000;stroke-width:0.0634411;stroke-dasharray:none;stroke-opacity:1"
       id="ellipse21709"
       cx="102.91084"
       cy="24.015753"
       rx="0.468279"
       ry="0.45536557" />
    <ellipse
       style="fill:#0000ff;fill-opacity:1;stroke:#000000;stroke-width:0.0634411;stroke-dasharray:none;stroke-opacity:1"
       id="ellipse21711"
       cx="110.91621"
       cy="24.015753"
       rx="0.46827942"
       ry="0.45536557" />
    <ellipse
       style="fill:#0000ff;fill-opacity:1;stroke:#000000;stroke-width:0.0634411;stroke-dasharray:none;stroke-opacity:1"
       id="ellipse21713"
       cx="118.92159"
       cy="24.015753"
       rx="0.46827942"
       ry="0.45536557" />
    <ellipse
       style="fill:#0000ff;fill-opacity:1;stroke:#000000;stroke-width:0.0634411;stroke-dasharray:none;stroke-opacity:1"
       id="ellipse21715"
       cx="126.92696"
       cy="24.015753"
       rx="0.46827942"
       ry="0.45536557" />
    <ellipse
       style="fill:#0000ff;fill-opacity:1;stroke:#000000;stroke-width:0.0634411;stroke-dasharray:none;stroke-opacity:1"
       id="ellipse21717"
       cx="134.93233"
       cy="24.015753"
       rx="0.46827942"
       ry="0.45536557" />
    <ellipse
       style="fill:#0000ff;fill-opacity:1;stroke:#000000;stroke-width:0.063441;stroke-dasharray:none;stroke-opacity:1"
       id="ellipse21719"
       cx="142.93771"
       cy="24.015753"
       rx="0.46827763"
       ry="0.45536557" />
    <ellipse
       style="fill:#0000ff;fill-opacity:1;stroke:#000000;stroke-width:0.0634411;stroke-dasharray:none;stroke-opacity:1"
       id="ellipse21721"
       cx="93.943069"
       cy="32.019444"
       rx="0.46827942"
       ry="0.45536557" />
    <ellipse
       style="fill:#0000ff;fill-opacity:1;stroke:#000000;stroke-width:0.0634411;stroke-dasharray:none;stroke-opacity:1"
       id="ellipse21723"
       cx="102.91084"
       cy="32.019444"
       rx="0.468279"
       ry="0.45536557" />
    <ellipse
       style="fill:#0000ff;fill-opacity:1;stroke:#000000;stroke-width:0.0634411;stroke-dasharray:none;stroke-opacity:1"
       id="ellipse21725"
       cx="110.91621"
       cy="32.019444"
       rx="0.46827942"
       ry="0.45536557" />
    <ellipse
       style="fill:#0000ff;fill-opacity:1;stroke:#000000;stroke-width:0.0634411;stroke-dasharray:none;stroke-opacity:1"
       id="ellipse21727"
       cx="118.92159"
       cy="32.019444"
       rx="0.46827942"
       ry="0.45536557" />
    <ellipse
       style="fill:#0000ff;fill-opacity:1;stroke:#000000;stroke-width:0.0634411;stroke-dasharray:none;stroke-opacity:1"
       id="ellipse21729"
       cx="126.92696"
       cy="32.019444"
       rx="0.46827942"
       ry="0.45536557" />
    <ellipse
       style="fill:#0000ff;fill-opacity:1;stroke:#000000;stroke-width:0.0634411;stroke-dasharray:none;stroke-opacity:1"
       id="ellipse21731"
       cx="134.93233"
       cy="32.019444"
       rx="0.46827942"
       ry="0.45536557" />
    <ellipse
       style="fill:#0000ff;fill-opacity:1;stroke:#000000;stroke-width:0.063441;stroke-dasharray:none;stroke-opacity:1"
       id="ellipse21733"
       cx="142.93771"
       cy="32.019444"
       rx="0.46827763"
       ry="0.45536557" />
    <ellipse
       style="fill:#0000ff;fill-opacity:1;stroke:#000000;stroke-width:0.0634411;stroke-dasharray:none;stroke-opacity:1"
       id="ellipse21735"
       cx="93.943069"
       cy="40.023136"
       rx="0.46827942"
       ry="0.45536557" />
    <ellipse
       style="fill:#0000ff;fill-opacity:1;stroke:#000000;stroke-width:0.0634411;stroke-dasharray:none;stroke-opacity:1"
       id="ellipse21737"
       cx="102.91084"
       cy="40.023136"
       rx="0.468279"
       ry="0.45536557" />
    <ellipse
       style="fill:#0000ff;fill-opacity:1;stroke:#000000;stroke-width:0.0634411;stroke-dasharray:none;stroke-opacity:1"
       id="ellipse21739"
       cx="110.91621"
       cy="40.023136"
       rx="0.46827942"
       ry="0.45536557" />
    <ellipse
       style="fill:#0000ff;fill-opacity:1;stroke:#000000;stroke-width:0.0634411;stroke-dasharray:none;stroke-opacity:1"
       id="ellipse21741"
       cx="118.92159"
       cy="40.023136"
       rx="0.46827942"
       ry="0.45536557" />
    <ellipse
       style="fill:#0000ff;fill-opacity:1;stroke:#000000;stroke-width:0.0634411;stroke-dasharray:none;stroke-opacity:1"
       id="ellipse21743"
       cx="126.92696"
       cy="40.023136"
       rx="0.46827942"
       ry="0.45536557" />
    <ellipse
       style="fill:#0000ff;fill-opacity:1;stroke:#000000;stroke-width:0.0634411;stroke-dasharray:none;stroke-opacity:1"
       id="ellipse21745"
       cx="134.93233"
       cy="40.023136"
       rx="0.46827942"
       ry="0.45536557" />
    <ellipse
       style="fill:#0000ff;fill-opacity:1;stroke:#000000;stroke-width:0.063441;stroke-dasharray:none;stroke-opacity:1"
       id="ellipse21747"
       cx="142.93771"
       cy="40.023136"
       rx="0.46827763"
       ry="0.45536557" />
    <ellipse
       style="fill:#0000ff;fill-opacity:1;stroke:#000000;stroke-width:0.0634411;stroke-dasharray:none;stroke-opacity:1"
       id="ellipse21749"
       cx="93.943069"
       cy="48.026825"
       rx="0.46827942"
       ry="0.45536557" />
    <ellipse
       style="fill:#0000ff;fill-opacity:1;stroke:#000000;stroke-width:0.0634411;stroke-dasharray:none;stroke-opacity:1"
       id="ellipse21751"
       cx="102.91084"
       cy="48.026825"
       rx="0.468279"
       ry="0.45536557" />
    <ellipse
       style="fill:#0000ff;fill-opacity:1;stroke:#000000;stroke-width:0.0634411;stroke-dasharray:none;stroke-opacity:1"
       id="ellipse21753"
       cx="110.91621"
       cy="48.026825"
       rx="0.46827942"
       ry="0.45536557" />
    <ellipse
       style="fill:#0000ff;fill-opacity:1;stroke:#000000;stroke-width:0.0634411;stroke-dasharray:none;stroke-opacity:1"
       id="ellipse21755"
       cx="118.92159"
       cy="48.026825"
       rx="0.46827942"
       ry="0.45536557" />
    <ellipse
       style="fill:#0000ff;fill-opacity:1;stroke:#000000;stroke-width:0.0634411;stroke-dasharray:none;stroke-opacity:1"
       id="ellipse21757"
       cx="126.92696"
       cy="48.026825"
       rx="0.46827942"
       ry="0.45536557" />
    <ellipse
       style="fill:#0000ff;fill-opacity:1;stroke:#000000;stroke-width:0.0634411;stroke-dasharray:none;stroke-opacity:1"
       id="ellipse21759"
       cx="134.93233"
       cy="48.026825"
       rx="0.46827942"
       ry="0.45536557" />
    <ellipse
       style="fill:#0000ff;fill-opacity:1;stroke:#000000;stroke-width:0.063441;stroke-dasharray:none;stroke-opacity:1"
       id="ellipse21761"
       cx="142.93771"
       cy="48.026825"
       rx="0.46827763"
       ry="0.45536557" />
    <path
       style="fill:#00ff00;fill-opacity:0.2;stroke:#000000;stroke-width:1;stroke-dasharray:none;stroke-dashoffset:0;stroke-opacity:1;marker-end:url(#Arrow1L)"
       d="m 74.086679,28.070738 h 9.007598"
       id="path22571"
       sodipodi:nodetypes="cc" />
    <g
       inkscape:label=""
       transform="translate(102.31386,49.103049)"
       id="g24983">
      <g
         fill="#000000"
         fill-opacity="1"
         id="g36"
         transform="matrix(0.352778,0,0,0.352778,-0.115755,9.7028e-4)">
        <g
           id="use34"
           transform="translate(0,8.9659996)">
          <path
             d="m 5.671875,-4.875 c -0.390625,0.0625 -0.53125,0.359375 -0.53125,0.578125 0,0.296875 0.21875,0.390625 0.390625,0.390625 0.359375,0 0.609375,-0.3125 0.609375,-0.640625 0,-0.5 -0.578125,-0.71875 -1.078125,-0.71875 -0.71875,0 -1.125,0.71875 -1.234375,0.9375 -0.28125,-0.890625 -1.015625,-0.9375 -1.234375,-0.9375 -1.21875,0 -1.859375,1.5625 -1.859375,1.828125 0,0.046875 0.046875,0.109375 0.125,0.109375 0.09375,0 0.125,-0.078125 0.140625,-0.125 0.40625,-1.328125 1.21875,-1.578125 1.5625,-1.578125 0.53125,0 0.640625,0.5 0.640625,0.78125 0,0.265625 -0.078125,0.546875 -0.21875,1.125 L 2.578125,-1.5 c -0.171875,0.71875 -0.515625,1.375 -1.15625,1.375 -0.0625,0 -0.359375,0 -0.609375,-0.15625 C 1.25,-0.359375 1.34375,-0.71875 1.34375,-0.859375 1.34375,-1.09375 1.15625,-1.25 0.9375,-1.25 c -0.296875,0 -0.609375,0.265625 -0.609375,0.640625 0,0.5 0.5625,0.734375 1.078125,0.734375 0.578125,0 0.984375,-0.453125 1.234375,-0.953125 C 2.828125,-0.125 3.4375,0.125 3.875,0.125 5.09375,0.125 5.734375,-1.453125 5.734375,-1.703125 5.734375,-1.765625 5.6875,-1.8125 5.625,-1.8125 5.515625,-1.8125 5.5,-1.75 5.46875,-1.65625 5.140625,-0.609375 4.453125,-0.125 3.90625,-0.125 3.484375,-0.125 3.265625,-0.4375 3.265625,-0.921875 3.265625,-1.1875 3.3125,-1.375 3.5,-2.15625 L 3.921875,-3.796875 C 4.09375,-4.5 4.5,-5.03125 5.0625,-5.03125 c 0.015625,0 0.359375,0 0.609375,0.15625 z m 0,0"
             id="path70" />
        </g>
      </g>
      <g
         fill="#000000"
         fill-opacity="1"
         id="g40"
         transform="matrix(0.352778,0,0,0.352778,-0.115755,9.7028e-4)">
        <g
           id="use38"
           transform="translate(9.9729996,8.9659996)">
          <path
             d="m 8.0625,-7.09375 c 0.140625,-0.0625 0.234375,-0.125 0.234375,-0.265625 0,-0.140625 -0.09375,-0.25 -0.234375,-0.25 -0.0625,0 -0.171875,0.0625 -0.21875,0.078125 l -6.609375,3.125 c -0.203125,0.09375 -0.25,0.171875 -0.25,0.265625 0,0.109375 0.078125,0.203125 0.25,0.265625 L 7.84375,-0.765625 C 8,-0.6875 8.015625,-0.6875 8.0625,-0.6875 c 0.125,0 0.234375,-0.09375 0.234375,-0.234375 0,-0.109375 -0.046875,-0.171875 -0.25,-0.265625 l -6.25,-2.953125 z M 7.875,1.640625 c 0.203125,0 0.421875,0 0.421875,-0.234375 0,-0.25 -0.25,-0.25 -0.4375,-0.25 h -6.4375 c -0.171875,0 -0.4375,0 -0.4375,0.25 0,0.234375 0.21875,0.234375 0.421875,0.234375 z m 0,0"
             id="path74" />
        </g>
      </g>
      <g
         clip-path="url(#clipPath3856)"
         id="g24961"
         transform="matrix(0.352778,0,0,0.352778,-0.115755,9.7028e-4)">
        <g
           fill="#000000"
           fill-opacity="1"
           id="g44">
          <g
             id="use42"
             transform="translate(22.595301,8.9659996)">
            <path
               d="m 4.609375,2.984375 c 0.1875,0 0.4375,0 0.4375,-0.234375 0,-0.234375 -0.25,-0.234375 -0.4375,-0.234375 H 2.5625 V -8.53125 c 0,-0.21875 0,-0.4375 -0.25,-0.4375 -0.234375,0 -0.234375,0.25 -0.234375,0.4375 V 2.5625 c 0,0.375 0.046875,0.421875 0.4375,0.421875 z m 0,0"
               id="path78" />
          </g>
        </g>
      </g>
      <g
         fill="#000000"
         fill-opacity="1"
         id="g50"
         transform="matrix(0.352778,0,0,0.352778,-0.115755,9.7028e-4)">
        <g
           id="use48"
           transform="translate(28.629999,8.9659996)">
          <path
             d="m 2.921875,-8.296875 -1.5625,1.625 0.1875,0.1875 1.375,-1.234375 1.375,1.234375 0.1875,-0.1875 z m 0,0"
             id="path82" />
        </g>
      </g>
      <g
         fill="#000000"
         fill-opacity="1"
         id="g24969"
         transform="matrix(0.352778,0,0,0.352778,-0.115755,9.7028e-4)">
        <g
           id="g24967"
           transform="translate(27.906,8.9659996)">
          <path
             d="m 5.671875,-4.875 c -0.390625,0.0625 -0.53125,0.359375 -0.53125,0.578125 0,0.296875 0.21875,0.390625 0.390625,0.390625 0.359375,0 0.609375,-0.3125 0.609375,-0.640625 0,-0.5 -0.578125,-0.71875 -1.078125,-0.71875 -0.71875,0 -1.125,0.71875 -1.234375,0.9375 -0.28125,-0.890625 -1.015625,-0.9375 -1.234375,-0.9375 -1.21875,0 -1.859375,1.5625 -1.859375,1.828125 0,0.046875 0.046875,0.109375 0.125,0.109375 0.09375,0 0.125,-0.078125 0.140625,-0.125 0.40625,-1.328125 1.21875,-1.578125 1.5625,-1.578125 0.53125,0 0.640625,0.5 0.640625,0.78125 0,0.265625 -0.078125,0.546875 -0.21875,1.125 L 2.578125,-1.5 c -0.171875,0.71875 -0.515625,1.375 -1.15625,1.375 -0.0625,0 -0.359375,0 -0.609375,-0.15625 C 1.25,-0.359375 1.34375,-0.71875 1.34375,-0.859375 1.34375,-1.09375 1.15625,-1.25 0.9375,-1.25 c -0.296875,0 -0.609375,0.265625 -0.609375,0.640625 0,0.5 0.5625,0.734375 1.078125,0.734375 0.578125,0 0.984375,-0.453125 1.234375,-0.953125 C 2.828125,-0.125 3.4375,0.125 3.875,0.125 5.09375,0.125 5.734375,-1.453125 5.734375,-1.703125 5.734375,-1.765625 5.6875,-1.8125 5.625,-1.8125 5.515625,-1.8125 5.5,-1.75 5.46875,-1.65625 5.140625,-0.609375 4.453125,-0.125 3.90625,-0.125 3.484375,-0.125 3.265625,-0.4375 3.265625,-0.921875 3.265625,-1.1875 3.3125,-1.375 3.5,-2.15625 L 3.921875,-3.796875 C 4.09375,-4.5 4.5,-5.03125 5.0625,-5.03125 c 0.015625,0 0.359375,0 0.609375,0.15625 z m 0,0"
             id="path86" />
        </g>
      </g>
      <g
         fill="#000000"
         fill-opacity="1"
         id="g58"
         transform="matrix(0.352778,0,0,0.352778,-0.115755,9.7028e-4)">
        <g
           id="g24972"
           transform="translate(34.557999,10.759)">
          <path
             d="m 2.375,-4.96875 c 0,-0.171875 -0.125,-0.3125 -0.3125,-0.3125 -0.203125,0 -0.4375,0.203125 -0.4375,0.4375 0,0.171875 0.125,0.296875 0.3125,0.296875 0.203125,0 0.4375,-0.1875 0.4375,-0.421875 z m -1.15625,2.921875 -0.4375,1.09375 c -0.046875,0.125 -0.078125,0.21875 -0.078125,0.359375 0,0.390625 0.296875,0.671875 0.71875,0.671875 0.78125,0 1.109375,-1.109375 1.109375,-1.21875 0,-0.078125 -0.0625,-0.109375 -0.125,-0.109375 -0.09375,0 -0.109375,0.0625 -0.140625,0.140625 -0.171875,0.640625 -0.5,0.96875 -0.828125,0.96875 -0.09375,0 -0.1875,-0.046875 -0.1875,-0.25 0,-0.203125 0.0625,-0.34375 0.15625,-0.59375 C 1.484375,-1.1875 1.5625,-1.40625 1.65625,-1.625 l 0.25,-0.640625 c 0.0625,-0.1875 0.171875,-0.4375 0.171875,-0.578125 0,-0.390625 -0.328125,-0.671875 -0.734375,-0.671875 -0.765625,0 -1.109375,1.109375 -1.109375,1.21875 0,0.078125 0.0625,0.109375 0.125,0.109375 0.109375,0 0.109375,-0.046875 0.140625,-0.125 0.21875,-0.765625 0.578125,-0.984375 0.828125,-0.984375 0.109375,0 0.1875,0.046875 0.1875,0.265625 0,0.078125 -0.015625,0.1875 -0.09375,0.4375 z m 0,0"
             id="path90" />
        </g>
      </g>
      <g
         clip-path="url(#clipPath1112)"
         id="g24981"
         transform="matrix(0.352778,0,0,0.352778,-0.115755,9.7028e-4)">
        <g
           fill="#000000"
           fill-opacity="1"
           id="g24979">
          <g
             id="g24977"
             transform="translate(37.938999,8.9659996)">
            <path
               d="m 3.21875,-8.53125 c 0,-0.21875 0,-0.4375 -0.25,-0.4375 -0.234375,0 -0.234375,0.25 -0.234375,0.4375 V 2.515625 H 0.6875 c -0.1875,0 -0.4375,0 -0.4375,0.234375 0,0.234375 0.25,0.234375 0.4375,0.234375 h 2.109375 c 0.375,0 0.421875,-0.03125 0.421875,-0.421875 z m 0,0"
               id="path24975" />
          </g>
        </g>
      </g>
    </g>
    <g
       inkscape:label=""
       transform="translate(126.6017,49.103049)"
       id="g25581">
      <g
         fill="#000000"
         fill-opacity="1"
         id="g25539"
         transform="matrix(0.352778,0,0,0.352778,-0.115755,9.7028e-4)">
        <g
           id="g25537"
           transform="translate(0,8.9659996)">
          <path
             d="m 5.671875,-4.875 c -0.390625,0.0625 -0.53125,0.359375 -0.53125,0.578125 0,0.296875 0.21875,0.390625 0.390625,0.390625 0.359375,0 0.609375,-0.3125 0.609375,-0.640625 0,-0.5 -0.578125,-0.71875 -1.078125,-0.71875 -0.71875,0 -1.125,0.71875 -1.234375,0.9375 -0.28125,-0.890625 -1.015625,-0.9375 -1.234375,-0.9375 -1.21875,0 -1.859375,1.5625 -1.859375,1.828125 0,0.046875 0.046875,0.109375 0.125,0.109375 0.09375,0 0.125,-0.078125 0.140625,-0.125 0.40625,-1.328125 1.21875,-1.578125 1.5625,-1.578125 0.53125,0 0.640625,0.5 0.640625,0.78125 0,0.265625 -0.078125,0.546875 -0.21875,1.125 L 2.578125,-1.5 c -0.171875,0.71875 -0.515625,1.375 -1.15625,1.375 -0.0625,0 -0.359375,0 -0.609375,-0.15625 C 1.25,-0.359375 1.34375,-0.71875 1.34375,-0.859375 1.34375,-1.09375 1.15625,-1.25 0.9375,-1.25 c -0.296875,0 -0.609375,0.265625 -0.609375,0.640625 0,0.5 0.5625,0.734375 1.078125,0.734375 0.578125,0 0.984375,-0.453125 1.234375,-0.953125 C 2.828125,-0.125 3.4375,0.125 3.875,0.125 5.09375,0.125 5.734375,-1.453125 5.734375,-1.703125 5.734375,-1.765625 5.6875,-1.8125 5.625,-1.8125 5.515625,-1.8125 5.5,-1.75 5.46875,-1.65625 5.140625,-0.609375 4.453125,-0.125 3.90625,-0.125 3.484375,-0.125 3.265625,-0.4375 3.265625,-0.921875 3.265625,-1.1875 3.3125,-1.375 3.5,-2.15625 L 3.921875,-3.796875 C 4.09375,-4.5 4.5,-5.03125 5.0625,-5.03125 c 0.015625,0 0.359375,0 0.609375,0.15625 z m 0,0"
             id="path25535" />
        </g>
      </g>
      <g
         fill="#000000"
         fill-opacity="1"
         id="g25545"
         transform="matrix(0.352778,0,0,0.352778,-0.115755,9.7028e-4)">
        <g
           id="g25543"
           transform="translate(9.9729996,8.9659996)">
          <path
             d="M 8.0625,-3.875 C 8.21875,-3.9375 8.296875,-4.03125 8.296875,-4.140625 8.296875,-4.25 8.25,-4.328125 8.0625,-4.40625 L 1.46875,-7.515625 C 1.296875,-7.609375 1.25,-7.609375 1.234375,-7.609375 c -0.140625,0 -0.25,0.109375 -0.25,0.25 0,0.140625 0.109375,0.203125 0.234375,0.265625 L 7.5,-4.140625 1.25,-1.1875 C 1,-1.09375 0.984375,-0.984375 0.984375,-0.921875 c 0,0.140625 0.109375,0.234375 0.25,0.234375 0.03125,0 0.0625,0 0.21875,-0.078125 z M 7.875,1.640625 c 0.203125,0 0.421875,0 0.421875,-0.234375 0,-0.25 -0.25,-0.25 -0.4375,-0.25 h -6.4375 c -0.171875,0 -0.4375,0 -0.4375,0.25 0,0.234375 0.21875,0.234375 0.421875,0.234375 z m 0,0"
             id="path25541" />
        </g>
      </g>
      <g
         clip-path="url(#clipPath5377)"
         id="g25553"
         transform="matrix(0.352778,0,0,0.352778,-0.115755,9.7028e-4)">
        <g
           fill="#000000"
           fill-opacity="1"
           id="g25551">
          <g
             id="g25549"
             transform="translate(22.595301,8.9659996)">
            <path
               d="m 4.609375,-8.484375 c 0.1875,0 0.4375,0 0.4375,-0.234375 0,-0.25 -0.25,-0.25 -0.4375,-0.25 h -2.09375 c -0.390625,0 -0.4375,0.046875 -0.4375,0.4375 V 2.5625 c 0,0.171875 0,0.421875 0.234375,0.421875 0.25,0 0.25,-0.21875 0.25,-0.421875 V -8.484375 Z m 0,0"
               id="path25547" />
          </g>
        </g>
      </g>
      <g
         fill="#000000"
         fill-opacity="1"
         id="g25559"
         transform="matrix(0.352778,0,0,0.352778,-0.115755,9.7028e-4)">
        <g
           id="g25557"
           transform="translate(28.629999,8.9659996)">
          <path
             d="m 2.921875,-8.296875 -1.5625,1.625 0.1875,0.1875 1.375,-1.234375 1.375,1.234375 0.1875,-0.1875 z m 0,0"
             id="path25555" />
        </g>
      </g>
      <g
         fill="#000000"
         fill-opacity="1"
         id="g25565"
         transform="matrix(0.352778,0,0,0.352778,-0.115755,9.7028e-4)">
        <g
           id="g25563"
           transform="translate(27.906,8.9659996)">
          <path
             d="m 5.671875,-4.875 c -0.390625,0.0625 -0.53125,0.359375 -0.53125,0.578125 0,0.296875 0.21875,0.390625 0.390625,0.390625 0.359375,0 0.609375,-0.3125 0.609375,-0.640625 0,-0.5 -0.578125,-0.71875 -1.078125,-0.71875 -0.71875,0 -1.125,0.71875 -1.234375,0.9375 -0.28125,-0.890625 -1.015625,-0.9375 -1.234375,-0.9375 -1.21875,0 -1.859375,1.5625 -1.859375,1.828125 0,0.046875 0.046875,0.109375 0.125,0.109375 0.09375,0 0.125,-0.078125 0.140625,-0.125 0.40625,-1.328125 1.21875,-1.578125 1.5625,-1.578125 0.53125,0 0.640625,0.5 0.640625,0.78125 0,0.265625 -0.078125,0.546875 -0.21875,1.125 L 2.578125,-1.5 c -0.171875,0.71875 -0.515625,1.375 -1.15625,1.375 -0.0625,0 -0.359375,0 -0.609375,-0.15625 C 1.25,-0.359375 1.34375,-0.71875 1.34375,-0.859375 1.34375,-1.09375 1.15625,-1.25 0.9375,-1.25 c -0.296875,0 -0.609375,0.265625 -0.609375,0.640625 0,0.5 0.5625,0.734375 1.078125,0.734375 0.578125,0 0.984375,-0.453125 1.234375,-0.953125 C 2.828125,-0.125 3.4375,0.125 3.875,0.125 5.09375,0.125 5.734375,-1.453125 5.734375,-1.703125 5.734375,-1.765625 5.6875,-1.8125 5.625,-1.8125 5.515625,-1.8125 5.5,-1.75 5.46875,-1.65625 5.140625,-0.609375 4.453125,-0.125 3.90625,-0.125 3.484375,-0.125 3.265625,-0.4375 3.265625,-0.921875 3.265625,-1.1875 3.3125,-1.375 3.5,-2.15625 L 3.921875,-3.796875 C 4.09375,-4.5 4.5,-5.03125 5.0625,-5.03125 c 0.015625,0 0.359375,0 0.609375,0.15625 z m 0,0"
             id="path25561" />
        </g>
      </g>
      <g
         fill="#000000"
         fill-opacity="1"
         id="g25571"
         transform="matrix(0.352778,0,0,0.352778,-0.115755,9.7028e-4)">
        <g
           id="g25569"
           transform="translate(34.557999,10.759)">
          <path
             d="m 2.375,-4.96875 c 0,-0.171875 -0.125,-0.3125 -0.3125,-0.3125 -0.203125,0 -0.4375,0.203125 -0.4375,0.4375 0,0.171875 0.125,0.296875 0.3125,0.296875 0.203125,0 0.4375,-0.1875 0.4375,-0.421875 z m -1.15625,2.921875 -0.4375,1.09375 c -0.046875,0.125 -0.078125,0.21875 -0.078125,0.359375 0,0.390625 0.296875,0.671875 0.71875,0.671875 0.78125,0 1.109375,-1.109375 1.109375,-1.21875 0,-0.078125 -0.0625,-0.109375 -0.125,-0.109375 -0.09375,0 -0.109375,0.0625 -0.140625,0.140625 -0.171875,0.640625 -0.5,0.96875 -0.828125,0.96875 -0.09375,0 -0.1875,-0.046875 -0.1875,-0.25 0,-0.203125 0.0625,-0.34375 0.15625,-0.59375 C 1.484375,-1.1875 1.5625,-1.40625 1.65625,-1.625 l 0.25,-0.640625 c 0.0625,-0.1875 0.171875,-0.4375 0.171875,-0.578125 0,-0.390625 -0.328125,-0.671875 -0.734375,-0.671875 -0.765625,0 -1.109375,1.109375 -1.109375,1.21875 0,0.078125 0.0625,0.109375 0.125,0.109375 0.109375,0 0.109375,-0.046875 0.140625,-0.125 0.21875,-0.765625 0.578125,-0.984375 0.828125,-0.984375 0.109375,0 0.1875,0.046875 0.1875,0.265625 0,0.078125 -0.015625,0.1875 -0.09375,0.4375 z m 0,0"
             id="path25567" />
        </g>
      </g>
      <g
         clip-path="url(#clipPath8547)"
         id="g25579"
         transform="matrix(0.352778,0,0,0.352778,-0.115755,9.7028e-4)">
        <g
           fill="#000000"
           fill-opacity="1"
           id="g25577">
          <g
             id="g25575"
             transform="translate(37.938999,8.9659996)">
            <path
               d="m 3.21875,-8.53125 c 0,-0.390625 -0.046875,-0.4375 -0.421875,-0.4375 H 0.6875 c -0.1875,0 -0.4375,0 -0.4375,0.25 0,0.234375 0.25,0.234375 0.4375,0.234375 H 2.734375 V 2.5625 c 0,0.171875 0,0.421875 0.234375,0.421875 0.25,0 0.25,-0.21875 0.25,-0.421875 z m 0,0"
               id="path25573" />
          </g>
        </g>
      </g>
    </g>
    <g
       inkscape:label=""
       transform="translate(49.264034,10.167608)"
       id="g26890"
       style="fill:#ff0000">
      <g
         fill="#000000"
         fill-opacity="1"
         id="g19"
         transform="matrix(0.352778,0,0,0.352778,-0.115755,-0.001808)"
         style="fill:#ff0000">
        <g
           id="use17"
           transform="translate(0.72500002,8.302)"
           style="fill:#ff0000">
          <path
             d="m 2.921875,-8.296875 -1.5625,1.625 0.1875,0.1875 1.375,-1.234375 1.375,1.234375 0.1875,-0.1875 z m 0,0"
             id="path31"
             style="fill:#ff0000" />
        </g>
      </g>
      <g
         clip-path="url(#clipPath2023)"
         id="g25"
         transform="matrix(0.352778,0,0,0.352778,-0.115755,-0.001808)"
         style="fill:#ff0000">
        <g
           fill="#000000"
           fill-opacity="1"
           id="g23"
           style="fill:#ff0000">
          <g
             id="use21"
             transform="translate(0,8.302)"
             style="fill:#ff0000">
            <path
               d="m 5.671875,-4.875 c -0.390625,0.0625 -0.53125,0.359375 -0.53125,0.578125 0,0.296875 0.21875,0.390625 0.390625,0.390625 0.359375,0 0.609375,-0.3125 0.609375,-0.640625 0,-0.5 -0.578125,-0.71875 -1.078125,-0.71875 -0.71875,0 -1.125,0.71875 -1.234375,0.9375 -0.28125,-0.890625 -1.015625,-0.9375 -1.234375,-0.9375 -1.21875,0 -1.859375,1.5625 -1.859375,1.828125 0,0.046875 0.046875,0.109375 0.125,0.109375 0.09375,0 0.125,-0.078125 0.140625,-0.125 0.40625,-1.328125 1.21875,-1.578125 1.5625,-1.578125 0.53125,0 0.640625,0.5 0.640625,0.78125 0,0.265625 -0.078125,0.546875 -0.21875,1.125 L 2.578125,-1.5 c -0.171875,0.71875 -0.515625,1.375 -1.15625,1.375 -0.0625,0 -0.359375,0 -0.609375,-0.15625 C 1.25,-0.359375 1.34375,-0.71875 1.34375,-0.859375 1.34375,-1.09375 1.15625,-1.25 0.9375,-1.25 c -0.296875,0 -0.609375,0.265625 -0.609375,0.640625 0,0.5 0.5625,0.734375 1.078125,0.734375 0.578125,0 0.984375,-0.453125 1.234375,-0.953125 C 2.828125,-0.125 3.4375,0.125 3.875,0.125 5.09375,0.125 5.734375,-1.453125 5.734375,-1.703125 5.734375,-1.765625 5.6875,-1.8125 5.625,-1.8125 5.515625,-1.8125 5.5,-1.75 5.46875,-1.65625 5.140625,-0.609375 4.453125,-0.125 3.90625,-0.125 3.484375,-0.125 3.265625,-0.4375 3.265625,-0.921875 3.265625,-1.1875 3.3125,-1.375 3.5,-2.15625 L 3.921875,-3.796875 C 4.09375,-4.5 4.5,-5.03125 5.0625,-5.03125 c 0.015625,0 0.359375,0 0.609375,0.15625 z m 0,0"
               id="path35"
               style="fill:#ff0000" />
          </g>
        </g>
      </g>
    </g>
  </g>
</svg>
