<?xml version="1.0" encoding="UTF-8" standalone="no"?>
<!-- Created with Inkscape (http://www.inkscape.org/) -->

<svg
   width="64mm"
   height="64mm"
   viewBox="0 0 63.999998 63.999999"
   version="1.1"
   id="svg37558"
   inkscape:version="1.2.2 (732a01da63, 2022-12-09)"
   sodipodi:docname="cp_idea_4.svg"
   xmlns:inkscape="http://www.inkscape.org/namespaces/inkscape"
   xmlns:sodipodi="http://sodipodi.sourceforge.net/DTD/sodipodi-0.dtd"
   xmlns="http://www.w3.org/2000/svg"
   xmlns:svg="http://www.w3.org/2000/svg">
  <sodipodi:namedview
     id="namedview37560"
     pagecolor="#ffffff"
     bordercolor="#000000"
     borderopacity="0.25"
     inkscape:showpageshadow="2"
     inkscape:pageopacity="0.0"
     inkscape:pagecheckerboard="0"
     inkscape:deskcolor="#d1d1d1"
     inkscape:document-units="mm"
     showgrid="false"
     inkscape:zoom="2.9540684"
     inkscape:cx="129.6517"
     inkscape:cy="74.812079"
     inkscape:window-width="1920"
     inkscape:window-height="1009"
     inkscape:window-x="-8"
     inkscape:window-y="-8"
     inkscape:window-maximized="1"
     inkscape:current-layer="layer1" />
  <defs
     id="defs37555">
    <marker
       style="overflow:visible"
       id="marker17030"
       refX="0"
       refY="0"
       orient="auto-start-reverse"
       inkscape:stockid="TriangleStart"
       markerWidth="5.3244081"
       markerHeight="6.155385"
       viewBox="0 0 5.3244081 6.1553851"
       inkscape:isstock="true"
       inkscape:collect="always"
       preserveAspectRatio="xMidYMid">
      <path
         transform="scale(0.5)"
         style="fill:context-stroke;fill-rule:evenodd;stroke:context-stroke;stroke-width:1pt"
         d="M 5.77,0 -2.88,5 V -5 Z"
         id="path17028" />
    </marker>
    <clipPath
       id="clipPath9973">
      <path
         clip-rule="nonzero"
         d="M 14,14 H 43 V 28.835938 H 14 Z m 0,0"
         id="path6578" />
    </clipPath>
    <clipPath
       id="clipPath9062">
      <path
         clip-rule="nonzero"
         d="m 7,5 h 12 v 6.066406 H 7 Z m 0,0"
         id="path4863" />
    </clipPath>
    <clipPath
       id="clipPath1590">
      <path
         clip-rule="nonzero"
         d="m 7,5 h 9 v 6.066406 H 7 Z m 0,0"
         id="path7390" />
    </clipPath>
    <clipPath
       id="clipPath2948">
      <path
         clip-rule="nonzero"
         d="m 15,5 h 5 v 6.066406 h -5 z m 0,0"
         id="path7932" />
    </clipPath>
    <clipPath
       id="clipPath7494">
      <path
         clip-rule="nonzero"
         d="m 20,5 h 12 v 6.066406 H 20 Z m 0,0"
         id="path9555" />
    </clipPath>
    <clipPath
       id="clipPath3567">
      <path
         clip-rule="nonzero"
         d="M 0,0 H 34 V 11.988281 H 0 Z m 0,0"
         id="path1464" />
    </clipPath>
    <clipPath
       id="clipPath9450">
      <path
         clip-rule="nonzero"
         d="m 41,6 h 13 v 5.988281 H 41 Z m 0,0"
         id="path8909" />
    </clipPath>
    <clipPath
       id="clipPath243">
      <path
         clip-rule="nonzero"
         d="m 54,0 h 4 v 11.988281 h -4 z m 0,0"
         id="path9050" />
    </clipPath>
    <clipPath
       id="clipPath5425">
      <path
         clip-rule="nonzero"
         d="M 0,0 H 5 V 5.148438 H 0 Z m 0,0"
         id="path3411" />
    </clipPath>
    <clipPath
       id="clipPath4204">
      <path
         clip-rule="nonzero"
         d="M 0,3 H 6.652344 V 8.300781 H 0 Z m 0,0"
         id="path243" />
    </clipPath>
    <clipPath
       id="clipPath4726">
      <path
         clip-rule="nonzero"
         d="M 0,0 H 34 V 11.953125 H 0 Z m 0,0"
         id="path5399" />
    </clipPath>
    <clipPath
       id="clipPath4014">
      <path
         clip-rule="nonzero"
         d="m 41,0 h 4 v 11.953125 h -4 z m 0,0"
         id="path1291" />
    </clipPath>
    <clipPath
       id="clipPath6702">
      <path
         clip-rule="nonzero"
         d="M 0,2 H 7 V 8.046875 H 0 Z m 0,0"
         id="path7622" />
    </clipPath>
  </defs>
  <g
     inkscape:label="Ebene 1"
     inkscape:groupmode="layer"
     id="layer1"
     transform="translate(-16.3307, -6.49546)">
    <ellipse
       style="fill:#0000ff;fill-opacity:1;stroke:#000000;stroke-width:0.0634411;stroke-dasharray:none;stroke-opacity:1"
       id="path3632"
       cx="18.830673"
       cy="8.9825468"
       rx="0.46827942"
       ry="0.45536557" />
    <path
       style="fill:#00ff00;fill-opacity:0.2;stroke:#000000;stroke-width:0.2;stroke-dasharray:none;stroke-opacity:1"
       d="m 22.54342,54.000848 19.897427,-19.723691 9.373709,-9.287232 3.573938,-0.0032 15.746533,27.575049 -48.636523,1.481453 z"
       id="path4244"
       sodipodi:nodetypes="ccccccc" />
    <ellipse
       style="fill:#0000ff;fill-opacity:1;stroke:#000000;stroke-width:0.0634411;stroke-dasharray:none;stroke-opacity:1"
       id="ellipse5556"
       cx="35.80381"
       cy="8.9825468"
       rx="0.46827942"
       ry="0.45536557" />
    <ellipse
       style="fill:#0000ff;fill-opacity:1;stroke:#000000;stroke-width:0.0634411;stroke-dasharray:none;stroke-opacity:1"
       id="ellipse5560"
       cx="51.814556"
       cy="8.9825468"
       rx="0.46827942"
       ry="0.45536557" />
    <ellipse
       style="fill:#0000ff;fill-opacity:1;stroke:#000000;stroke-width:0.063441;stroke-dasharray:none;stroke-opacity:1"
       id="ellipse5564"
       cx="67.82531"
       cy="8.9825468"
       rx="0.46827763"
       ry="0.45536557" />
    <ellipse
       style="fill:#0000ff;fill-opacity:1;stroke:#000000;stroke-width:0.0634411;stroke-dasharray:none;stroke-opacity:1"
       id="ellipse5584"
       cx="18.830673"
       cy="24.989925"
       rx="0.46827942"
       ry="0.45536557" />
    <ellipse
       style="fill:#0000ff;fill-opacity:1;stroke:#000000;stroke-width:0.0634411;stroke-dasharray:none;stroke-opacity:1"
       id="ellipse5588"
       cx="35.80381"
       cy="24.989925"
       rx="0.46827942"
       ry="0.45536557" />
    <ellipse
       style="fill:#0000ff;fill-opacity:1;stroke:#000000;stroke-width:0.0634411;stroke-dasharray:none;stroke-opacity:1"
       id="ellipse5592"
       cx="51.814556"
       cy="24.989925"
       rx="0.46827942"
       ry="0.45536557" />
    <ellipse
       style="fill:#0000ff;fill-opacity:1;stroke:#000000;stroke-width:0.063441;stroke-dasharray:none;stroke-opacity:1"
       id="ellipse5596"
       cx="67.82531"
       cy="24.989925"
       rx="0.46827763"
       ry="0.45536557" />
    <ellipse
       style="fill:#0000ff;fill-opacity:1;stroke:#000000;stroke-width:0.0634411;stroke-dasharray:none;stroke-opacity:1"
       id="ellipse5616"
       cx="18.830673"
       cy="40.997307"
       rx="0.46827942"
       ry="0.45536557" />
    <ellipse
       style="fill:#0000ff;fill-opacity:1;stroke:#000000;stroke-width:0.0634411;stroke-dasharray:none;stroke-opacity:1"
       id="ellipse5620"
       cx="35.80381"
       cy="40.997307"
       rx="0.46827942"
       ry="0.45536557" />
    <ellipse
       style="fill:#0000ff;fill-opacity:1;stroke:#000000;stroke-width:0.0634411;stroke-dasharray:none;stroke-opacity:1"
       id="ellipse5624"
       cx="51.814556"
       cy="40.997307"
       rx="0.46827942"
       ry="0.45536557" />
    <ellipse
       style="fill:#0000ff;fill-opacity:1;stroke:#000000;stroke-width:0.063441;stroke-dasharray:none;stroke-opacity:1"
       id="ellipse5628"
       cx="67.82531"
       cy="40.997307"
       rx="0.46827763"
       ry="0.45536557" />
    <ellipse
       style="fill:#0000ff;fill-opacity:1;stroke:#000000;stroke-width:0.0634411;stroke-dasharray:none;stroke-opacity:1"
       id="ellipse5648"
       cx="18.830673"
       cy="57.004684"
       rx="0.46827942"
       ry="0.45536557" />
    <ellipse
       style="fill:#0000ff;fill-opacity:1;stroke:#000000;stroke-width:0.0634411;stroke-dasharray:none;stroke-opacity:1"
       id="ellipse5652"
       cx="35.80381"
       cy="57.004684"
       rx="0.46827942"
       ry="0.45536557" />
    <ellipse
       style="fill:#0000ff;fill-opacity:1;stroke:#000000;stroke-width:0.0634411;stroke-dasharray:none;stroke-opacity:1"
       id="ellipse5656"
       cx="51.814556"
       cy="57.004684"
       rx="0.46827942"
       ry="0.45536557" />
    <ellipse
       style="fill:#0000ff;fill-opacity:1;stroke:#000000;stroke-width:0.063441;stroke-dasharray:none;stroke-opacity:1"
       id="ellipse5660"
       cx="67.82531"
       cy="57.004684"
       rx="0.46827763"
       ry="0.45536557" />
    <path
       style="fill:#11ff00;fill-opacity:0.2;stroke:#00ffff;stroke-width:0.2;stroke-dasharray:1.2, 1.2;stroke-dashoffset:0;stroke-opacity:1"
       d="M 77.830057,44.33556 H 18.330673"
       id="path8801"
       sodipodi:nodetypes="cc" />
    <path
       style="fill:#11ff00;fill-opacity:0.2;stroke:#00ffff;stroke-width:0.2;stroke-dasharray:none;stroke-dashoffset:0;stroke-opacity:1;marker-start:url(#marker17030)"
       d="M 72.3307,35.430882 V 27.491198"
       id="path16657"
       sodipodi:nodetypes="cc" />
    <g
       inkscape:label=""
       transform="translate(72.946239,30.086841)"
       id="g17785"
       style="fill:#00ffff">
      <g
         clip-path="url(#clipPath5425)"
         id="g17"
         transform="matrix(0.352778,0,0,0.352778,-0.170877,0.0418483)"
         style="fill:#00ffff">
        <g
           fill="#000000"
           fill-opacity="1"
           id="g15"
           style="fill:#00ffff">
          <g
             id="use13"
             transform="translate(0,5.1469998)"
             style="fill:#00ffff">
            <path
               d="m 4.671875,-4.5 c -0.21875,0 -0.328125,0 -0.5,0.15625 -0.078125,0.046875 -0.203125,0.234375 -0.203125,0.421875 0,0.234375 0.171875,0.390625 0.40625,0.390625 0.28125,0 0.609375,-0.25 0.609375,-0.71875 0,-0.578125 -0.546875,-1.015625 -1.375,-1.015625 -1.5625,0 -3.125,1.703125 -3.125,3.40625 C 0.484375,-0.828125 1.125,0.125 2.34375,0.125 3.96875,0.125 5,-1.140625 5,-1.296875 5,-1.375 4.921875,-1.4375 4.875,-1.4375 c -0.03125,0 -0.046875,0.015625 -0.15625,0.125 -0.765625,1.015625 -1.890625,1.1875 -2.359375,1.1875 -0.8125,0 -1.078125,-0.71875 -1.078125,-1.3125 0,-0.421875 0.203125,-1.578125 0.625,-2.390625 0.3125,-0.5625 0.96875,-1.203125 1.71875,-1.203125 0.15625,0 0.8125,0.015625 1.046875,0.53125 z m 0,0"
               id="path23"
               style="fill:#00ffff" />
          </g>
        </g>
      </g>
    </g>
    <path
       style="fill:#11ff00;fill-opacity:0.2;stroke:#00ffff;stroke-width:0.2;stroke-dasharray:1.2, 1.2;stroke-dashoffset:0;stroke-opacity:1"
       d="M 77.830057,27.591198 H 18.330673"
       id="path32635"
       sodipodi:nodetypes="cc" />
    <path
       style="fill:#11ff00;fill-opacity:0.2;stroke:#00ffff;stroke-width:0.2;stroke-dasharray:1.2, 1.2;stroke-dashoffset:0;stroke-opacity:1"
       d="M 77.830057,11.504732 H 18.330673"
       id="path32637"
       sodipodi:nodetypes="cc" />
    <path
       style="fill:#ff0000;fill-opacity:0.2;stroke:#ff0000;stroke-width:0.2;stroke-dasharray:none;stroke-opacity:1"
       d="M 20.838514,55.700456 58.174974,18.690064"
       id="path36523"
       sodipodi:nodetypes="cc" />
  </g>
</svg>
