<?xml version="1.0" encoding="UTF-8" standalone="no"?>
<!-- Created with Inkscape (http://www.inkscape.org/) -->

<svg
   width="64mm"
   height="64mm"
   viewBox="0 0 63.999998 63.999999"
   version="1.1"
   id="svg37558"
   inkscape:version="1.2.2 (732a01da63, 2022-12-09)"
   sodipodi:docname="naive_rounding.svg"
   xmlns:inkscape="http://www.inkscape.org/namespaces/inkscape"
   xmlns:sodipodi="http://sodipodi.sourceforge.net/DTD/sodipodi-0.dtd"
   xmlns="http://www.w3.org/2000/svg"
   xmlns:svg="http://www.w3.org/2000/svg">
  <sodipodi:namedview
     id="namedview37560"
     pagecolor="#ffffff"
     bordercolor="#000000"
     borderopacity="0.25"
     inkscape:showpageshadow="2"
     inkscape:pageopacity="0.0"
     inkscape:pagecheckerboard="0"
     inkscape:deskcolor="#d1d1d1"
     inkscape:document-units="mm"
     showgrid="false"
     inkscape:zoom="2.0888418"
     inkscape:cx="112.50254"
     inkscape:cy="151.28001"
     inkscape:window-width="1920"
     inkscape:window-height="1009"
     inkscape:window-x="-8"
     inkscape:window-y="-8"
     inkscape:window-maximized="1"
     inkscape:current-layer="layer1" />
  <defs
     id="defs37555">
    <marker
       style="overflow:visible"
       id="marker17030"
       refX="0"
       refY="0"
       orient="auto-start-reverse"
       inkscape:stockid="TriangleStart"
       markerWidth="5.3244081"
       markerHeight="6.155385"
       viewBox="0 0 5.3244081 6.1553851"
       inkscape:isstock="true"
       inkscape:collect="always"
       preserveAspectRatio="xMidYMid">
      <path
         transform="scale(0.5)"
         style="fill:context-stroke;fill-rule:evenodd;stroke:context-stroke;stroke-width:1pt"
         d="M 5.77,0 -2.88,5 V -5 Z"
         id="path17028" />
    </marker>
    <marker
       style="overflow:visible"
       id="TriangleStart"
       refX="0"
       refY="0"
       orient="auto-start-reverse"
       inkscape:stockid="TriangleStart"
       markerWidth="5.3244081"
       markerHeight="6.155385"
       viewBox="0 0 5.3244081 6.1553851"
       inkscape:isstock="true"
       inkscape:collect="always"
       preserveAspectRatio="xMidYMid">
      <path
         transform="scale(0.5)"
         style="fill:context-stroke;fill-rule:evenodd;stroke:context-stroke;stroke-width:1pt"
         d="M 5.77,0 -2.88,5 V -5 Z"
         id="path135" />
    </marker>
    <clipPath
       id="clipPath9973">
      <path
         clip-rule="nonzero"
         d="M 14,14 H 43 V 28.835938 H 14 Z m 0,0"
         id="path6578" />
    </clipPath>
    <clipPath
       id="clipPath9062">
      <path
         clip-rule="nonzero"
         d="m 7,5 h 12 v 6.066406 H 7 Z m 0,0"
         id="path4863" />
    </clipPath>
    <clipPath
       id="clipPath1590">
      <path
         clip-rule="nonzero"
         d="m 7,5 h 9 v 6.066406 H 7 Z m 0,0"
         id="path7390" />
    </clipPath>
    <clipPath
       id="clipPath2948">
      <path
         clip-rule="nonzero"
         d="m 15,5 h 5 v 6.066406 h -5 z m 0,0"
         id="path7932" />
    </clipPath>
    <clipPath
       id="clipPath7494">
      <path
         clip-rule="nonzero"
         d="m 20,5 h 12 v 6.066406 H 20 Z m 0,0"
         id="path9555" />
    </clipPath>
    <clipPath
       id="clipPath3567">
      <path
         clip-rule="nonzero"
         d="M 0,0 H 34 V 11.988281 H 0 Z m 0,0"
         id="path1464" />
    </clipPath>
    <clipPath
       id="clipPath9450">
      <path
         clip-rule="nonzero"
         d="m 41,6 h 13 v 5.988281 H 41 Z m 0,0"
         id="path8909" />
    </clipPath>
    <clipPath
       id="clipPath243">
      <path
         clip-rule="nonzero"
         d="m 54,0 h 4 v 11.988281 h -4 z m 0,0"
         id="path9050" />
    </clipPath>
    <clipPath
       id="clipPath5425">
      <path
         clip-rule="nonzero"
         d="M 0,0 H 5 V 5.148438 H 0 Z m 0,0"
         id="path3411" />
    </clipPath>
    <clipPath
       id="clipPath4204">
      <path
         clip-rule="nonzero"
         d="M 0,3 H 6.652344 V 8.300781 H 0 Z m 0,0"
         id="path243" />
    </clipPath>
    <clipPath
       id="clipPath4726">
      <path
         clip-rule="nonzero"
         d="M 0,0 H 34 V 11.953125 H 0 Z m 0,0"
         id="path5399" />
    </clipPath>
    <clipPath
       id="clipPath4014">
      <path
         clip-rule="nonzero"
         d="m 41,0 h 4 v 11.953125 h -4 z m 0,0"
         id="path1291" />
    </clipPath>
    <clipPath
       id="clipPath6702">
      <path
         clip-rule="nonzero"
         d="M 0,2 H 7 V 8.046875 H 0 Z m 0,0"
         id="path7622" />
    </clipPath>
  </defs>
  <g
     inkscape:label="Ebene 1"
     inkscape:groupmode="layer"
     id="layer1"
     transform="translate(-16.3307, -6.49546)">
    <ellipse
       style="fill:#0000ff;fill-opacity:1;stroke:#000000;stroke-width:0.0634411;stroke-dasharray:none;stroke-opacity:1"
       id="path3632"
       cx="18.830673"
       cy="8.9825468"
       rx="0.46827942"
       ry="0.45536557" />
    <path
       style="fill:#00ff00;fill-opacity:0.2;stroke:#000000;stroke-width:0.2;stroke-dasharray:none;stroke-opacity:1"
       d="M 21.947355,16.49915 45.780126,12.790016 70.897224,65.008369 Z"
       id="path4244"
       sodipodi:nodetypes="cccc" />
    <ellipse
       style="fill:#0000ff;fill-opacity:1;stroke:#000000;stroke-width:0.0634411;stroke-dasharray:none;stroke-opacity:1"
       id="ellipse5554"
       cx="27.798437"
       cy="8.9825468"
       rx="0.468279"
       ry="0.45536557" />
    <ellipse
       style="fill:#0000ff;fill-opacity:1;stroke:#000000;stroke-width:0.0634411;stroke-dasharray:none;stroke-opacity:1"
       id="ellipse5556"
       cx="35.80381"
       cy="8.9825468"
       rx="0.46827942"
       ry="0.45536557" />
    <ellipse
       style="fill:#0000ff;fill-opacity:1;stroke:#000000;stroke-width:0.0634411;stroke-dasharray:none;stroke-opacity:1"
       id="ellipse5558"
       cx="43.809185"
       cy="8.9825468"
       rx="0.46827942"
       ry="0.45536557" />
    <ellipse
       style="fill:#0000ff;fill-opacity:1;stroke:#000000;stroke-width:0.0634411;stroke-dasharray:none;stroke-opacity:1"
       id="ellipse5560"
       cx="51.814556"
       cy="8.9825468"
       rx="0.46827942"
       ry="0.45536557" />
    <ellipse
       style="fill:#0000ff;fill-opacity:1;stroke:#000000;stroke-width:0.0634411;stroke-dasharray:none;stroke-opacity:1"
       id="ellipse5562"
       cx="59.819931"
       cy="8.9825468"
       rx="0.46827942"
       ry="0.45536557" />
    <ellipse
       style="fill:#0000ff;fill-opacity:1;stroke:#000000;stroke-width:0.063441;stroke-dasharray:none;stroke-opacity:1"
       id="ellipse5564"
       cx="67.82531"
       cy="8.9825468"
       rx="0.46827763"
       ry="0.45536557" />
    <ellipse
       style="fill:#0000ff;fill-opacity:1;stroke:#000000;stroke-width:0.0634411;stroke-dasharray:none;stroke-opacity:1"
       id="ellipse5566"
       cx="75.830673"
       cy="8.9825468"
       rx="0.46827942"
       ry="0.45536557" />
    <ellipse
       style="fill:#0000ff;fill-opacity:1;stroke:#000000;stroke-width:0.0634411;stroke-dasharray:none;stroke-opacity:1"
       id="ellipse5568"
       cx="18.830673"
       cy="16.986237"
       rx="0.46827942"
       ry="0.45536557" />
    <ellipse
       style="fill:#0000ff;fill-opacity:1;stroke:#000000;stroke-width:0.0634411;stroke-dasharray:none;stroke-opacity:1"
       id="ellipse5570"
       cx="27.798437"
       cy="16.986237"
       rx="0.468279"
       ry="0.45536557" />
    <ellipse
       style="fill:#0000ff;fill-opacity:1;stroke:#000000;stroke-width:0.0634411;stroke-dasharray:none;stroke-opacity:1"
       id="ellipse5572"
       cx="35.80381"
       cy="16.986237"
       rx="0.46827942"
       ry="0.45536557" />
    <ellipse
       style="fill:#0000ff;fill-opacity:1;stroke:#000000;stroke-width:0.0634411;stroke-dasharray:none;stroke-opacity:1"
       id="ellipse5574"
       cx="43.809185"
       cy="16.986237"
       rx="0.46827942"
       ry="0.45536557" />
    <ellipse
       style="fill:#0000ff;fill-opacity:1;stroke:#000000;stroke-width:0.0634411;stroke-dasharray:none;stroke-opacity:1"
       id="ellipse5576"
       cx="51.814556"
       cy="16.986237"
       rx="0.46827942"
       ry="0.45536557" />
    <ellipse
       style="fill:#0000ff;fill-opacity:1;stroke:#000000;stroke-width:0.0634411;stroke-dasharray:none;stroke-opacity:1"
       id="ellipse5578"
       cx="59.819931"
       cy="16.986237"
       rx="0.46827942"
       ry="0.45536557" />
    <ellipse
       style="fill:#0000ff;fill-opacity:1;stroke:#000000;stroke-width:0.063441;stroke-dasharray:none;stroke-opacity:1"
       id="ellipse5580"
       cx="67.82531"
       cy="16.986237"
       rx="0.46827763"
       ry="0.45536557" />
    <ellipse
       style="fill:#0000ff;fill-opacity:1;stroke:#000000;stroke-width:0.0634411;stroke-dasharray:none;stroke-opacity:1"
       id="ellipse5582"
       cx="75.830673"
       cy="16.986237"
       rx="0.46827942"
       ry="0.45536557" />
    <ellipse
       style="fill:#0000ff;fill-opacity:1;stroke:#000000;stroke-width:0.0634411;stroke-dasharray:none;stroke-opacity:1"
       id="ellipse5584"
       cx="18.830673"
       cy="24.989925"
       rx="0.46827942"
       ry="0.45536557" />
    <ellipse
       style="fill:#0000ff;fill-opacity:1;stroke:#000000;stroke-width:0.0634411;stroke-dasharray:none;stroke-opacity:1"
       id="ellipse5586"
       cx="27.798437"
       cy="24.989925"
       rx="0.468279"
       ry="0.45536557" />
    <ellipse
       style="fill:#0000ff;fill-opacity:1;stroke:#000000;stroke-width:0.0634411;stroke-dasharray:none;stroke-opacity:1"
       id="ellipse5588"
       cx="35.80381"
       cy="24.989925"
       rx="0.46827942"
       ry="0.45536557" />
    <ellipse
       style="fill:#0000ff;fill-opacity:1;stroke:#000000;stroke-width:0.0634411;stroke-dasharray:none;stroke-opacity:1"
       id="ellipse5590"
       cx="43.809185"
       cy="24.989925"
       rx="0.46827942"
       ry="0.45536557" />
    <ellipse
       style="fill:#0000ff;fill-opacity:1;stroke:#000000;stroke-width:0.0634411;stroke-dasharray:none;stroke-opacity:1"
       id="ellipse5592"
       cx="51.814556"
       cy="24.989925"
       rx="0.46827942"
       ry="0.45536557" />
    <ellipse
       style="fill:#0000ff;fill-opacity:1;stroke:#000000;stroke-width:0.0634411;stroke-dasharray:none;stroke-opacity:1"
       id="ellipse5594"
       cx="59.819931"
       cy="24.989925"
       rx="0.46827942"
       ry="0.45536557" />
    <ellipse
       style="fill:#0000ff;fill-opacity:1;stroke:#000000;stroke-width:0.063441;stroke-dasharray:none;stroke-opacity:1"
       id="ellipse5596"
       cx="67.82531"
       cy="24.989925"
       rx="0.46827763"
       ry="0.45536557" />
    <ellipse
       style="fill:#0000ff;fill-opacity:1;stroke:#000000;stroke-width:0.0634411;stroke-dasharray:none;stroke-opacity:1"
       id="ellipse5598"
       cx="75.830673"
       cy="24.989925"
       rx="0.46827942"
       ry="0.45536557" />
    <ellipse
       style="fill:#0000ff;fill-opacity:1;stroke:#000000;stroke-width:0.0634411;stroke-dasharray:none;stroke-opacity:1"
       id="ellipse5600"
       cx="18.830673"
       cy="32.993614"
       rx="0.46827942"
       ry="0.45536557" />
    <ellipse
       style="fill:#0000ff;fill-opacity:1;stroke:#000000;stroke-width:0.0634411;stroke-dasharray:none;stroke-opacity:1"
       id="ellipse5602"
       cx="27.798437"
       cy="32.993614"
       rx="0.468279"
       ry="0.45536557" />
    <ellipse
       style="fill:#0000ff;fill-opacity:1;stroke:#000000;stroke-width:0.0634411;stroke-dasharray:none;stroke-opacity:1"
       id="ellipse5604"
       cx="35.80381"
       cy="32.993614"
       rx="0.46827942"
       ry="0.45536557" />
    <ellipse
       style="fill:#0000ff;fill-opacity:1;stroke:#000000;stroke-width:0.0634411;stroke-dasharray:none;stroke-opacity:1"
       id="ellipse5606"
       cx="43.809185"
       cy="32.993614"
       rx="0.46827942"
       ry="0.45536557" />
    <ellipse
       style="fill:#0000ff;fill-opacity:1;stroke:#000000;stroke-width:0.0634411;stroke-dasharray:none;stroke-opacity:1"
       id="ellipse5608"
       cx="51.814556"
       cy="32.993614"
       rx="0.46827942"
       ry="0.45536557" />
    <ellipse
       style="fill:#0000ff;fill-opacity:1;stroke:#000000;stroke-width:0.0634411;stroke-dasharray:none;stroke-opacity:1"
       id="ellipse5610"
       cx="59.819931"
       cy="32.993614"
       rx="0.46827942"
       ry="0.45536557" />
    <ellipse
       style="fill:#0000ff;fill-opacity:1;stroke:#000000;stroke-width:0.063441;stroke-dasharray:none;stroke-opacity:1"
       id="ellipse5612"
       cx="67.82531"
       cy="32.993614"
       rx="0.46827763"
       ry="0.45536557" />
    <ellipse
       style="fill:#0000ff;fill-opacity:1;stroke:#000000;stroke-width:0.0634411;stroke-dasharray:none;stroke-opacity:1"
       id="ellipse5614"
       cx="75.830673"
       cy="32.993614"
       rx="0.46827942"
       ry="0.45536557" />
    <ellipse
       style="fill:#0000ff;fill-opacity:1;stroke:#000000;stroke-width:0.0634411;stroke-dasharray:none;stroke-opacity:1"
       id="ellipse5616"
       cx="18.830673"
       cy="40.997307"
       rx="0.46827942"
       ry="0.45536557" />
    <ellipse
       style="fill:#0000ff;fill-opacity:1;stroke:#000000;stroke-width:0.0634411;stroke-dasharray:none;stroke-opacity:1"
       id="ellipse5618"
       cx="27.798437"
       cy="40.997307"
       rx="0.468279"
       ry="0.45536557" />
    <ellipse
       style="fill:#0000ff;fill-opacity:1;stroke:#000000;stroke-width:0.0634411;stroke-dasharray:none;stroke-opacity:1"
       id="ellipse5620"
       cx="35.80381"
       cy="40.997307"
       rx="0.46827942"
       ry="0.45536557" />
    <ellipse
       style="fill:#0000ff;fill-opacity:1;stroke:#000000;stroke-width:0.0634411;stroke-dasharray:none;stroke-opacity:1"
       id="ellipse5622"
       cx="43.809185"
       cy="40.997307"
       rx="0.46827942"
       ry="0.45536557" />
    <ellipse
       style="fill:#0000ff;fill-opacity:1;stroke:#000000;stroke-width:0.0634411;stroke-dasharray:none;stroke-opacity:1"
       id="ellipse5624"
       cx="51.814556"
       cy="40.997307"
       rx="0.46827942"
       ry="0.45536557" />
    <ellipse
       style="fill:#0000ff;fill-opacity:1;stroke:#000000;stroke-width:0.0634411;stroke-dasharray:none;stroke-opacity:1"
       id="ellipse5626"
       cx="59.819931"
       cy="40.997307"
       rx="0.46827942"
       ry="0.45536557" />
    <ellipse
       style="fill:#0000ff;fill-opacity:1;stroke:#000000;stroke-width:0.063441;stroke-dasharray:none;stroke-opacity:1"
       id="ellipse5628"
       cx="67.82531"
       cy="40.997307"
       rx="0.46827763"
       ry="0.45536557" />
    <ellipse
       style="fill:#0000ff;fill-opacity:1;stroke:#000000;stroke-width:0.0634411;stroke-dasharray:none;stroke-opacity:1"
       id="ellipse5630"
       cx="75.830673"
       cy="40.997307"
       rx="0.46827942"
       ry="0.45536557" />
    <ellipse
       style="fill:#0000ff;fill-opacity:1;stroke:#000000;stroke-width:0.0634411;stroke-dasharray:none;stroke-opacity:1"
       id="ellipse5632"
       cx="18.830673"
       cy="49.000996"
       rx="0.46827942"
       ry="0.45536557" />
    <ellipse
       style="fill:#0000ff;fill-opacity:1;stroke:#000000;stroke-width:0.0634411;stroke-dasharray:none;stroke-opacity:1"
       id="ellipse5634"
       cx="27.798437"
       cy="49.000996"
       rx="0.468279"
       ry="0.45536557" />
    <ellipse
       style="fill:#0000ff;fill-opacity:1;stroke:#000000;stroke-width:0.0634411;stroke-dasharray:none;stroke-opacity:1"
       id="ellipse5636"
       cx="35.80381"
       cy="49.000996"
       rx="0.46827942"
       ry="0.45536557" />
    <ellipse
       style="fill:#0000ff;fill-opacity:1;stroke:#000000;stroke-width:0.0634411;stroke-dasharray:none;stroke-opacity:1"
       id="ellipse5638"
       cx="43.809185"
       cy="49.000996"
       rx="0.46827942"
       ry="0.45536557" />
    <ellipse
       style="fill:#0000ff;fill-opacity:1;stroke:#000000;stroke-width:0.0634411;stroke-dasharray:none;stroke-opacity:1"
       id="ellipse5640"
       cx="51.814556"
       cy="49.000996"
       rx="0.46827942"
       ry="0.45536557" />
    <ellipse
       style="fill:#0000ff;fill-opacity:1;stroke:#000000;stroke-width:0.0634411;stroke-dasharray:none;stroke-opacity:1"
       id="ellipse5642"
       cx="59.819931"
       cy="49.000996"
       rx="0.46827942"
       ry="0.45536557" />
    <ellipse
       style="fill:#0000ff;fill-opacity:1;stroke:#000000;stroke-width:0.063441;stroke-dasharray:none;stroke-opacity:1"
       id="ellipse5644"
       cx="67.82531"
       cy="49.000996"
       rx="0.46827763"
       ry="0.45536557" />
    <ellipse
       style="fill:#0000ff;fill-opacity:1;stroke:#000000;stroke-width:0.0634411;stroke-dasharray:none;stroke-opacity:1"
       id="ellipse5646"
       cx="75.830673"
       cy="49.000996"
       rx="0.46827942"
       ry="0.45536557" />
    <ellipse
       style="fill:#0000ff;fill-opacity:1;stroke:#000000;stroke-width:0.0634411;stroke-dasharray:none;stroke-opacity:1"
       id="ellipse5648"
       cx="18.830673"
       cy="57.004684"
       rx="0.46827942"
       ry="0.45536557" />
    <ellipse
       style="fill:#0000ff;fill-opacity:1;stroke:#000000;stroke-width:0.0634411;stroke-dasharray:none;stroke-opacity:1"
       id="ellipse5650"
       cx="27.798437"
       cy="57.004684"
       rx="0.468279"
       ry="0.45536557" />
    <ellipse
       style="fill:#0000ff;fill-opacity:1;stroke:#000000;stroke-width:0.0634411;stroke-dasharray:none;stroke-opacity:1"
       id="ellipse5652"
       cx="35.80381"
       cy="57.004684"
       rx="0.46827942"
       ry="0.45536557" />
    <ellipse
       style="fill:#0000ff;fill-opacity:1;stroke:#000000;stroke-width:0.0634411;stroke-dasharray:none;stroke-opacity:1"
       id="ellipse5654"
       cx="43.809185"
       cy="57.004684"
       rx="0.46827942"
       ry="0.45536557" />
    <ellipse
       style="fill:#0000ff;fill-opacity:1;stroke:#000000;stroke-width:0.0634411;stroke-dasharray:none;stroke-opacity:1"
       id="ellipse5656"
       cx="51.814556"
       cy="57.004684"
       rx="0.46827942"
       ry="0.45536557" />
    <ellipse
       style="fill:#0000ff;fill-opacity:1;stroke:#000000;stroke-width:0.0634411;stroke-dasharray:none;stroke-opacity:1"
       id="ellipse5658"
       cx="59.819931"
       cy="57.004684"
       rx="0.46827942"
       ry="0.45536557" />
    <ellipse
       style="fill:#0000ff;fill-opacity:1;stroke:#000000;stroke-width:0.063441;stroke-dasharray:none;stroke-opacity:1"
       id="ellipse5660"
       cx="67.82531"
       cy="57.004684"
       rx="0.46827763"
       ry="0.45536557" />
    <ellipse
       style="fill:#0000ff;fill-opacity:1;stroke:#000000;stroke-width:0.0634411;stroke-dasharray:none;stroke-opacity:1"
       id="ellipse5662"
       cx="75.830673"
       cy="57.004684"
       rx="0.46827942"
       ry="0.45536557" />
    <ellipse
       style="fill:#0000ff;fill-opacity:1;stroke:#000000;stroke-width:0.0634409;stroke-dasharray:none;stroke-opacity:1"
       id="ellipse5664"
       cx="18.830673"
       cy="65.008369"
       rx="0.46827942"
       ry="0.45536575" />
    <ellipse
       style="fill:#0000ff;fill-opacity:1;stroke:#000000;stroke-width:0.0634409;stroke-dasharray:none;stroke-opacity:1"
       id="ellipse5666"
       cx="27.798437"
       cy="65.008369"
       rx="0.468279"
       ry="0.45536575" />
    <ellipse
       style="fill:#0000ff;fill-opacity:1;stroke:#000000;stroke-width:0.0634409;stroke-dasharray:none;stroke-opacity:1"
       id="ellipse5668"
       cx="35.80381"
       cy="65.008369"
       rx="0.46827942"
       ry="0.45536575" />
    <ellipse
       style="fill:#0000ff;fill-opacity:1;stroke:#000000;stroke-width:0.0634409;stroke-dasharray:none;stroke-opacity:1"
       id="ellipse5670"
       cx="43.809185"
       cy="65.008369"
       rx="0.46827942"
       ry="0.45536575" />
    <ellipse
       style="fill:#0000ff;fill-opacity:1;stroke:#000000;stroke-width:0.0634409;stroke-dasharray:none;stroke-opacity:1"
       id="ellipse5672"
       cx="51.814556"
       cy="65.008369"
       rx="0.46827942"
       ry="0.45536575" />
    <ellipse
       style="fill:#0000ff;fill-opacity:1;stroke:#000000;stroke-width:0.0634409;stroke-dasharray:none;stroke-opacity:1"
       id="ellipse5674"
       cx="59.819931"
       cy="65.008369"
       rx="0.46827942"
       ry="0.45536575" />
    <ellipse
       style="fill:#0000ff;fill-opacity:1;stroke:#000000;stroke-width:0.0634408;stroke-dasharray:none;stroke-opacity:1"
       id="ellipse5676"
       cx="67.825302"
       cy="65.008369"
       rx="0.46827763"
       ry="0.45536575" />
    <ellipse
       style="fill:#0000ff;fill-opacity:1;stroke:#000000;stroke-width:0.0634409;stroke-dasharray:none;stroke-opacity:1"
       id="ellipse5678"
       cx="75.830673"
       cy="65.008369"
       rx="0.46827942"
       ry="0.45536575" />
    <path
       style="fill:#11ff00;fill-opacity:0.2;stroke:#00ffff;stroke-width:0.2;stroke-dasharray:1.2, 1.2;stroke-dashoffset:0;stroke-opacity:1"
       d="M 71.413608,9.5678467 18.420239,19.720465"
       id="path6475"
       sodipodi:nodetypes="cc" />
    <path
       style="fill:#11ff00;fill-opacity:0.2;stroke:#00ffff;stroke-width:0.2;stroke-dasharray:1.2, 1.2;stroke-dashoffset:0;stroke-opacity:1"
       d="M 75.311857,25.575225 22.318487,35.727843"
       id="path8799"
       sodipodi:nodetypes="cc" />
    <path
       style="fill:#11ff00;fill-opacity:0.2;stroke:#00ffff;stroke-width:0.2;stroke-dasharray:1.2, 1.2;stroke-dashoffset:0;stroke-opacity:1"
       d="M 76.311857,41.582607 23.318487,51.735225"
       id="path8801"
       sodipodi:nodetypes="cc" />
    <path
       style="fill:#11ff00;fill-opacity:0.2;stroke:#00ffff;stroke-width:0.2;stroke-dasharray:1.2, 1.2;stroke-dashoffset:0;stroke-opacity:1"
       d="M 77.811241,59.162314 24.817871,69.314932"
       id="path8803"
       sodipodi:nodetypes="cc" />
    <ellipse
       style="fill:#ff0000;fill-opacity:1;stroke:#000000;stroke-width:0.128554;stroke-dasharray:none;stroke-opacity:1"
       id="ellipse8805"
       cx="70.762878"
       cy="64.785736"
       rx="0.93572325"
       ry="0.93572319" />
    <ellipse
       style="fill:#ff0000;fill-opacity:1;stroke:#000000;stroke-width:0.128554;stroke-dasharray:none;stroke-opacity:1"
       id="ellipse8807"
       cx="67.807205"
       cy="64.748924"
       rx="0.93572325"
       ry="0.93572319" />
    <ellipse
       style="fill:#ff0000;fill-opacity:1;stroke:#000000;stroke-width:0.128554;stroke-dasharray:none;stroke-opacity:1"
       id="ellipse8809"
       cx="59.880638"
       cy="49.074921"
       rx="0.93572325"
       ry="0.93572319" />
    <path
       style="fill:#ff0000;fill-opacity:1;stroke:#ff0000;stroke-width:0.4;stroke-dasharray:none;stroke-dashoffset:0;stroke-opacity:1;marker-end:url(#TriangleStart)"
       d="m 72.984224,55.405399 -1.506902,6.149883"
       id="path10683"
       sodipodi:nodetypes="cc" />
    <path
       style="fill:#ff0000;fill-opacity:1;stroke:#ff0000;stroke-width:0.4;stroke-dasharray:none;stroke-dashoffset:0;stroke-opacity:1;marker-end:url(#TriangleStart)"
       d="m 56.013708,61.202672 8.614027,2.770885"
       id="path11710"
       sodipodi:nodetypes="cc" />
    <path
       style="fill:#ff0000;fill-opacity:1;stroke:#ff0000;stroke-width:0.4;stroke-dasharray:none;stroke-dashoffset:0;stroke-opacity:1;marker-end:url(#TriangleStart)"
       d="M 63.982351,40.067152 61.78732,45.769206"
       id="path11714"
       sodipodi:nodetypes="cc" />
    <path
       style="fill:#11ff00;fill-opacity:0.2;stroke:#00ffff;stroke-width:0.2;stroke-dasharray:none;stroke-dashoffset:0;stroke-opacity:1;marker-start:url(#marker17030)"
       d="m 64.058211,19.661078 1.25539,7.831705"
       id="path16657"
       sodipodi:nodetypes="cc" />
    <g
       inkscape:label=""
       transform="translate(65.412341,20.586959)"
       id="g17785"
       style="fill:#00ffff">
      <g
         clip-path="url(#clipPath5425)"
         id="g17"
         transform="matrix(0.352778,0,0,0.352778,-0.170877,0.0418483)"
         style="fill:#00ffff">
        <g
           fill="#000000"
           fill-opacity="1"
           id="g15"
           style="fill:#00ffff">
          <g
             id="use13"
             transform="translate(0,5.1469998)"
             style="fill:#00ffff">
            <path
               d="m 4.671875,-4.5 c -0.21875,0 -0.328125,0 -0.5,0.15625 -0.078125,0.046875 -0.203125,0.234375 -0.203125,0.421875 0,0.234375 0.171875,0.390625 0.40625,0.390625 0.28125,0 0.609375,-0.25 0.609375,-0.71875 0,-0.578125 -0.546875,-1.015625 -1.375,-1.015625 -1.5625,0 -3.125,1.703125 -3.125,3.40625 C 0.484375,-0.828125 1.125,0.125 2.34375,0.125 3.96875,0.125 5,-1.140625 5,-1.296875 5,-1.375 4.921875,-1.4375 4.875,-1.4375 c -0.03125,0 -0.046875,0.015625 -0.15625,0.125 -0.765625,1.015625 -1.890625,1.1875 -2.359375,1.1875 -0.8125,0 -1.078125,-0.71875 -1.078125,-1.3125 0,-0.421875 0.203125,-1.578125 0.625,-2.390625 0.3125,-0.5625 0.96875,-1.203125 1.71875,-1.203125 0.15625,0 0.8125,0.015625 1.046875,0.53125 z m 0,0"
               id="path23"
               style="fill:#00ffff" />
          </g>
        </g>
      </g>
    </g>
    <g
       inkscape:label=""
       transform="translate(72.153216,50.920147)"
       id="g31348"
       style="fill:#ff0000">
      <g
         fill="#000000"
         fill-opacity="1"
         id="g19"
         transform="matrix(0.352778,0,0,0.352778,-0.115755,-0.001808)"
         style="fill:#ff0000">
        <g
           id="use17"
           transform="translate(0.72500002,8.302)"
           style="fill:#ff0000">
          <path
             d="m 2.921875,-8.296875 -1.5625,1.625 0.1875,0.1875 1.375,-1.234375 1.375,1.234375 0.1875,-0.1875 z m 0,0"
             id="path31"
             style="fill:#ff0000" />
        </g>
      </g>
      <g
         clip-path="url(#clipPath4204)"
         id="g25"
         transform="matrix(0.352778,0,0,0.352778,-0.115755,-0.001808)"
         style="fill:#ff0000">
        <g
           fill="#000000"
           fill-opacity="1"
           id="g23"
           style="fill:#ff0000">
          <g
             id="use21"
             transform="translate(0,8.302)"
             style="fill:#ff0000">
            <path
               d="m 5.671875,-4.875 c -0.390625,0.0625 -0.53125,0.359375 -0.53125,0.578125 0,0.296875 0.21875,0.390625 0.390625,0.390625 0.359375,0 0.609375,-0.3125 0.609375,-0.640625 0,-0.5 -0.578125,-0.71875 -1.078125,-0.71875 -0.71875,0 -1.125,0.71875 -1.234375,0.9375 -0.28125,-0.890625 -1.015625,-0.9375 -1.234375,-0.9375 -1.21875,0 -1.859375,1.5625 -1.859375,1.828125 0,0.046875 0.046875,0.109375 0.125,0.109375 0.09375,0 0.125,-0.078125 0.140625,-0.125 0.40625,-1.328125 1.21875,-1.578125 1.5625,-1.578125 0.53125,0 0.640625,0.5 0.640625,0.78125 0,0.265625 -0.078125,0.546875 -0.21875,1.125 L 2.578125,-1.5 c -0.171875,0.71875 -0.515625,1.375 -1.15625,1.375 -0.0625,0 -0.359375,0 -0.609375,-0.15625 C 1.25,-0.359375 1.34375,-0.71875 1.34375,-0.859375 1.34375,-1.09375 1.15625,-1.25 0.9375,-1.25 c -0.296875,0 -0.609375,0.265625 -0.609375,0.640625 0,0.5 0.5625,0.734375 1.078125,0.734375 0.578125,0 0.984375,-0.453125 1.234375,-0.953125 C 2.828125,-0.125 3.4375,0.125 3.875,0.125 5.09375,0.125 5.734375,-1.453125 5.734375,-1.703125 5.734375,-1.765625 5.6875,-1.8125 5.625,-1.8125 5.515625,-1.8125 5.5,-1.75 5.46875,-1.65625 5.140625,-0.609375 4.453125,-0.125 3.90625,-0.125 3.484375,-0.125 3.265625,-0.4375 3.265625,-0.921875 3.265625,-1.1875 3.3125,-1.375 3.5,-2.15625 L 3.921875,-3.796875 C 4.09375,-4.5 4.5,-5.03125 5.0625,-5.03125 c 0.015625,0 0.359375,0 0.609375,0.15625 z m 0,0"
               id="path35"
               style="fill:#ff0000" />
          </g>
        </g>
      </g>
    </g>
    <g
       inkscape:label=""
       transform="translate(39.571608,58.174972)"
       id="g31764"
       style="fill:#ff0000">
      <g
         clip-path="url(#clipPath4726)"
         id="g55"
         transform="matrix(0.352778,0,0,0.352778,-0.115755,9.7028e-4)"
         style="fill:#ff0000">
        <g
           fill="#000000"
           fill-opacity="1"
           id="g53"
           style="fill:#ff0000">
          <g
             id="use41"
             transform="translate(0,8.9659996)"
             style="fill:#ff0000">
            <path
               d="m 2,-2.78125 c 0,-1.15625 0.46875,-2.25 1.390625,-2.25 0.09375,0 0.125,0 0.171875,0.015625 -0.09375,0.046875 -0.28125,0.109375 -0.28125,0.4375 0,0.34375 0.265625,0.484375 0.453125,0.484375 0.25,0 0.484375,-0.15625 0.484375,-0.484375 0,-0.359375 -0.328125,-0.6875 -0.84375,-0.6875 -1.015625,0 -1.359375,1.09375 -1.421875,1.328125 H 1.9375 v -1.328125 l -1.609375,0.125 v 0.34375 c 0.8125,0 0.921875,0.09375 0.921875,0.671875 v 3.234375 c 0,0.546875 -0.140625,0.546875 -0.921875,0.546875 V 0 c 0.34375,-0.03125 1,-0.03125 1.359375,-0.03125 0.328125,0 1.171875,0 1.4375,0.03125 V -0.34375 H 2.890625 C 2.015625,-0.34375 2,-0.484375 2,-0.90625 Z m 0,0"
               id="path75"
               style="fill:#ff0000" />
          </g>
          <g
             id="use43"
             transform="translate(4.5525398,8.9659996)"
             style="fill:#ff0000">
            <path
               d="m 5.484375,-2.5625 c 0,-1.53125 -1.171875,-2.765625 -2.5625,-2.765625 -1.421875,0 -2.5625,1.265625 -2.5625,2.765625 0,1.53125 1.1875,2.6875 2.5625,2.6875 1.40625,0 2.5625,-1.171875 2.5625,-2.6875 z m -2.5625,2.421875 c -0.4375,0 -0.96875,-0.1875 -1.3125,-0.78125 -0.328125,-0.53125 -0.34375,-1.234375 -0.34375,-1.75 0,-0.453125 0,-1.171875 0.375,-1.71875 C 1.96875,-4.90625 2.5,-5.09375 2.921875,-5.09375 c 0.453125,0 0.96875,0.21875 1.28125,0.6875 0.375,0.546875 0.375,1.296875 0.375,1.734375 0,0.421875 0,1.171875 -0.3125,1.734375 C 3.9375,-0.375 3.375,-0.140625 2.921875,-0.140625 Z m 0,0"
               id="path79"
               style="fill:#ff0000" />
          </g>
          <g
             id="use45"
             transform="translate(10.405806,8.9659996)"
             style="fill:#ff0000">
            <path
               d="m 3.640625,-5.140625 v 0.34375 c 0.8125,0 0.90625,0.09375 0.90625,0.671875 v 2.140625 C 4.546875,-0.96875 4,-0.125 3.109375,-0.125 2.125,-0.125 2.0625,-0.6875 2.0625,-1.3125 v -3.953125 l -1.6875,0.125 v 0.34375 c 0.921875,0 0.921875,0.046875 0.921875,1.109375 v 1.78125 c 0,0.75 0,1.171875 0.359375,1.578125 C 1.9375,-0.03125 2.421875,0.125 3.03125,0.125 c 0.203125,0 0.59375,0 1,-0.359375 C 4.375,-0.5 4.5625,-0.953125 4.5625,-0.953125 V 0.125 L 6.234375,0 v -0.34375 c -0.8125,0 -0.921875,-0.09375 -0.921875,-0.671875 v -4.25 z m 0,0"
               id="path83"
               style="fill:#ff0000" />
          </g>
          <g
             id="use47"
             transform="translate(16.909435,8.9659996)"
             style="fill:#ff0000">
            <path
               d="m 5.3125,-2.90625 c 0,-1.109375 0,-1.4375 -0.265625,-1.828125 -0.34375,-0.46875 -0.90625,-0.53125 -1.3125,-0.53125 -1.171875,0 -1.625,0.984375 -1.71875,1.21875 v -1.21875 l -1.640625,0.125 v 0.34375 c 0.8125,0 0.921875,0.09375 0.921875,0.671875 v 3.234375 c 0,0.546875 -0.140625,0.546875 -0.921875,0.546875 V 0 c 0.3125,-0.03125 0.96875,-0.03125 1.296875,-0.03125 0.34375,0 1,0 1.296875,0.03125 v -0.34375 c -0.75,0 -0.90625,0 -0.90625,-0.546875 v -2.21875 c 0,-1.25 0.828125,-1.921875 1.578125,-1.921875 0.734375,0 0.90625,0.609375 0.90625,1.34375 v 2.796875 c 0,0.546875 -0.140625,0.546875 -0.90625,0.546875 V 0 c 0.296875,-0.03125 0.953125,-0.03125 1.28125,-0.03125 0.34375,0 1,0 1.3125,0.03125 v -0.34375 c -0.609375,0 -0.90625,0 -0.921875,-0.359375 z m 0,0"
               id="path87"
               style="fill:#ff0000" />
          </g>
          <g
             id="use49"
             transform="translate(23.413063,8.9659996)"
             style="fill:#ff0000">
            <path
               d="M 3.578125,-8.15625 V -7.8125 C 4.40625,-7.8125 4.5,-7.734375 4.5,-7.140625 V -4.5 C 4.25,-4.859375 3.734375,-5.265625 3,-5.265625 c -1.390625,0 -2.578125,1.171875 -2.578125,2.703125 0,1.515625 1.125,2.6875 2.453125,2.6875 0.90625,0 1.421875,-0.609375 1.59375,-0.828125 V 0.125 L 6.15625,0 V -0.34375 C 5.34375,-0.34375 5.25,-0.4375 5.25,-1.015625 v -7.28125 z m 0.890625,6.75 c 0,0.21875 0,0.265625 -0.171875,0.515625 -0.28125,0.421875 -0.765625,0.765625 -1.375,0.765625 -0.296875,0 -1.59375,-0.109375 -1.59375,-2.4375 0,-0.859375 0.140625,-1.328125 0.40625,-1.734375 0.234375,-0.359375 0.71875,-0.734375 1.3125,-0.734375 0.75,0 1.15625,0.53125 1.28125,0.734375 0.140625,0.203125 0.140625,0.21875 0.140625,0.4375 z m 0,0"
               id="path91"
               style="fill:#ff0000" />
          </g>
          <g
             id="use51"
             transform="translate(29.916693,8.9659996)"
             style="fill:#ff0000">
            <path
               d="m 3.890625,2.90625 c 0,-0.03125 0,-0.0625 -0.203125,-0.265625 C 2.484375,1.4375 1.8125,-0.53125 1.8125,-2.96875 c 0,-2.328125 0.5625,-4.328125 1.953125,-5.734375 0.125,-0.109375 0.125,-0.125 0.125,-0.171875 0,-0.0625 -0.0625,-0.09375 -0.109375,-0.09375 -0.15625,0 -1.140625,0.859375 -1.71875,2.03125 -0.609375,1.21875 -0.890625,2.484375 -0.890625,3.96875 0,1.0625 0.171875,2.484375 0.78125,3.75 C 2.671875,2.21875 3.640625,3 3.78125,3 3.828125,3 3.890625,2.96875 3.890625,2.90625 Z m 0,0"
               id="path95"
               style="fill:#ff0000" />
          </g>
        </g>
      </g>
      <g
         fill="#000000"
         fill-opacity="1"
         id="g59"
         transform="matrix(0.352778,0,0,0.352778,-0.115755,9.7028e-4)"
         style="fill:#ff0000">
        <g
           id="use57"
           transform="translate(35.186546,8.9659996)"
           style="fill:#ff0000">
          <path
             d="m 2.921875,-8.296875 -1.5625,1.625 0.1875,0.1875 1.375,-1.234375 1.375,1.234375 0.1875,-0.1875 z m 0,0"
             id="path99"
             style="fill:#ff0000" />
        </g>
      </g>
      <g
         fill="#000000"
         fill-opacity="1"
         id="g63"
         transform="matrix(0.352778,0,0,0.352778,-0.115755,9.7028e-4)"
         style="fill:#ff0000">
        <g
           id="use61"
           transform="translate(34.467999,8.9659996)"
           style="fill:#ff0000">
          <path
             d="m 5.671875,-4.875 c -0.390625,0.0625 -0.53125,0.359375 -0.53125,0.578125 0,0.296875 0.21875,0.390625 0.390625,0.390625 0.359375,0 0.609375,-0.3125 0.609375,-0.640625 0,-0.5 -0.578125,-0.71875 -1.078125,-0.71875 -0.71875,0 -1.125,0.71875 -1.234375,0.9375 -0.28125,-0.890625 -1.015625,-0.9375 -1.234375,-0.9375 -1.21875,0 -1.859375,1.5625 -1.859375,1.828125 0,0.046875 0.046875,0.109375 0.125,0.109375 0.09375,0 0.125,-0.078125 0.140625,-0.125 0.40625,-1.328125 1.21875,-1.578125 1.5625,-1.578125 0.53125,0 0.640625,0.5 0.640625,0.78125 0,0.265625 -0.078125,0.546875 -0.21875,1.125 L 2.578125,-1.5 c -0.171875,0.71875 -0.515625,1.375 -1.15625,1.375 -0.0625,0 -0.359375,0 -0.609375,-0.15625 C 1.25,-0.359375 1.34375,-0.71875 1.34375,-0.859375 1.34375,-1.09375 1.15625,-1.25 0.9375,-1.25 c -0.296875,0 -0.609375,0.265625 -0.609375,0.640625 0,0.5 0.5625,0.734375 1.078125,0.734375 0.578125,0 0.984375,-0.453125 1.234375,-0.953125 C 2.828125,-0.125 3.4375,0.125 3.875,0.125 5.09375,0.125 5.734375,-1.453125 5.734375,-1.703125 5.734375,-1.765625 5.6875,-1.8125 5.625,-1.8125 5.515625,-1.8125 5.5,-1.75 5.46875,-1.65625 5.140625,-0.609375 4.453125,-0.125 3.90625,-0.125 3.484375,-0.125 3.265625,-0.4375 3.265625,-0.921875 3.265625,-1.1875 3.3125,-1.375 3.5,-2.15625 L 3.921875,-3.796875 C 4.09375,-4.5 4.5,-5.03125 5.0625,-5.03125 c 0.015625,0 0.359375,0 0.609375,0.15625 z m 0,0"
             id="path103"
             style="fill:#ff0000" />
        </g>
      </g>
      <g
         clip-path="url(#clipPath4014)"
         id="g69"
         transform="matrix(0.352778,0,0,0.352778,-0.115755,9.7028e-4)"
         style="fill:#ff0000">
        <g
           fill="#000000"
           fill-opacity="1"
           id="g67"
           style="fill:#ff0000">
          <g
             id="use65"
             transform="translate(41.119999,8.9659996)"
             style="fill:#ff0000">
            <path
               d="M 3.375,-2.96875 C 3.375,-3.890625 3.25,-5.359375 2.578125,-6.75 1.875,-8.1875 0.890625,-8.96875 0.765625,-8.96875 c -0.046875,0 -0.109375,0.03125 -0.109375,0.09375 0,0.046875 0,0.0625 0.203125,0.265625 1.203125,1.203125 1.859375,3.1875 1.859375,5.625 0,2.3125 -0.5625,4.3125 -1.9375,5.71875 C 0.65625,2.84375 0.65625,2.875 0.65625,2.90625 0.65625,2.96875 0.71875,3 0.765625,3 0.921875,3 1.90625,2.140625 2.484375,0.96875 3.09375,-0.25 3.375,-1.546875 3.375,-2.96875 Z m 0,0"
               id="path107"
               style="fill:#ff0000" />
          </g>
        </g>
      </g>
    </g>
    <g
       inkscape:label=""
       transform="translate(63.6492,36.101203)"
       id="g32243"
       style="fill:#ff0000">
      <g
         clip-path="url(#clipPath6702)"
         id="g21"
         transform="matrix(0.352778,0,0,0.352778,-0.115755,-0.00207261)"
         style="fill:#ff0000">
        <g
           fill="#000000"
           fill-opacity="1"
           id="g32235"
           style="fill:#ff0000">
          <g
             id="g32233"
             transform="translate(0,8.0469999)"
             style="fill:#ff0000">
            <path
               d="m 5.671875,-4.875 c -0.390625,0.0625 -0.53125,0.359375 -0.53125,0.578125 0,0.296875 0.21875,0.390625 0.390625,0.390625 0.359375,0 0.609375,-0.3125 0.609375,-0.640625 0,-0.5 -0.578125,-0.71875 -1.078125,-0.71875 -0.71875,0 -1.125,0.71875 -1.234375,0.9375 -0.28125,-0.890625 -1.015625,-0.9375 -1.234375,-0.9375 -1.21875,0 -1.859375,1.5625 -1.859375,1.828125 0,0.046875 0.046875,0.109375 0.125,0.109375 0.09375,0 0.125,-0.078125 0.140625,-0.125 0.40625,-1.328125 1.21875,-1.578125 1.5625,-1.578125 0.53125,0 0.640625,0.5 0.640625,0.78125 0,0.265625 -0.078125,0.546875 -0.21875,1.125 L 2.578125,-1.5 c -0.171875,0.71875 -0.515625,1.375 -1.15625,1.375 -0.0625,0 -0.359375,0 -0.609375,-0.15625 C 1.25,-0.359375 1.34375,-0.71875 1.34375,-0.859375 1.34375,-1.09375 1.15625,-1.25 0.9375,-1.25 c -0.296875,0 -0.609375,0.265625 -0.609375,0.640625 0,0.5 0.5625,0.734375 1.078125,0.734375 0.578125,0 0.984375,-0.453125 1.234375,-0.953125 C 2.828125,-0.125 3.4375,0.125 3.875,0.125 5.09375,0.125 5.734375,-1.453125 5.734375,-1.703125 5.734375,-1.765625 5.6875,-1.8125 5.625,-1.8125 5.515625,-1.8125 5.5,-1.75 5.46875,-1.65625 5.140625,-0.609375 4.453125,-0.125 3.90625,-0.125 3.484375,-0.125 3.265625,-0.4375 3.265625,-0.921875 3.265625,-1.1875 3.3125,-1.375 3.5,-2.15625 L 3.921875,-3.796875 C 4.09375,-4.5 4.5,-5.03125 5.0625,-5.03125 c 0.015625,0 0.359375,0 0.609375,0.15625 z m 0,0"
               id="path32231"
               style="fill:#ff0000" />
          </g>
        </g>
      </g>
      <g
         fill="#000000"
         fill-opacity="1"
         id="g32241"
         transform="matrix(0.352778,0,0,0.352778,-0.115755,-0.00207261)"
         style="fill:#ff0000">
        <g
           id="use23"
           transform="translate(6.652,3.7090001)"
           style="fill:#ff0000">
          <path
             d="M 3.296875,-1.046875 C 3.359375,-1 3.390625,-1 3.421875,-1 c 0.125,0 0.25,-0.109375 0.25,-0.25 0,-0.15625 -0.09375,-0.1875 -0.203125,-0.234375 -0.53125,-0.25 -0.734375,-0.34375 -1.125,-0.5 L 3.28125,-2.40625 C 3.34375,-2.4375 3.5,-2.5 3.5625,-2.53125 c 0.078125,-0.046875 0.109375,-0.125 0.109375,-0.1875 0,-0.109375 -0.046875,-0.25 -0.296875,-0.25 L 2.234375,-2.1875 2.34375,-3.375 c 0.015625,-0.125 0,-0.328125 -0.234375,-0.328125 -0.140625,0 -0.25,0.125 -0.234375,0.234375 V -3.375 L 1.984375,-2.1875 0.9375,-2.921875 C 0.859375,-2.96875 0.84375,-2.96875 0.796875,-2.96875 c -0.125,0 -0.234375,0.09375 -0.234375,0.25 0,0.140625 0.078125,0.171875 0.1875,0.234375 0.546875,0.25 0.734375,0.328125 1.125,0.5 L 0.9375,-1.5625 C 0.875,-1.546875 0.71875,-1.46875 0.65625,-1.453125 0.578125,-1.40625 0.5625,-1.328125 0.5625,-1.25 c 0,0.140625 0.109375,0.25 0.234375,0.25 0.0625,0 0.078125,0 0.28125,-0.140625 L 1.984375,-1.78125 1.875,-0.5 c 0,0.15625 0.140625,0.234375 0.234375,0.234375 0.109375,0 0.234375,-0.078125 0.234375,-0.234375 0,-0.078125 -0.03125,-0.34375 -0.03125,-0.4375 C 2.28125,-1.203125 2.25,-1.5 2.234375,-1.78125 Z m 0,0"
             id="path32238"
             style="fill:#ff0000" />
        </g>
      </g>
    </g>
  </g>
</svg>
