<?xml version="1.0" encoding="UTF-8" standalone="no"?>
<!-- Created with Inkscape (http://www.inkscape.org/) -->

<svg
   width="64mm"
   height="64mm"
   viewBox="0 0 63.999998 63.999999"
   version="1.1"
   id="svg37558"
   inkscape:version="1.2.2 (732a01da63, 2022-12-09)"
   sodipodi:docname="outrol.svg"
   xmlns:inkscape="http://www.inkscape.org/namespaces/inkscape"
   xmlns:sodipodi="http://sodipodi.sourceforge.net/DTD/sodipodi-0.dtd"
   xmlns="http://www.w3.org/2000/svg"
   xmlns:svg="http://www.w3.org/2000/svg">
  <sodipodi:namedview
     id="namedview37560"
     pagecolor="#ffffff"
     bordercolor="#000000"
     borderopacity="0.25"
     inkscape:showpageshadow="2"
     inkscape:pageopacity="0.0"
     inkscape:pagecheckerboard="0"
     inkscape:deskcolor="#d1d1d1"
     inkscape:document-units="mm"
     showgrid="false"
     inkscape:zoom="2.0888418"
     inkscape:cx="136.43925"
     inkscape:cy="162.29089"
     inkscape:window-width="1920"
     inkscape:window-height="1009"
     inkscape:window-x="-8"
     inkscape:window-y="-8"
     inkscape:window-maximized="1"
     inkscape:current-layer="layer1" />
  <defs
     id="defs37555">
    <clipPath
       id="clipPath9973">
      <path
         clip-rule="nonzero"
         d="M 14,14 H 43 V 28.835938 H 14 Z m 0,0"
         id="path6578" />
    </clipPath>
    <clipPath
       id="clipPath9062">
      <path
         clip-rule="nonzero"
         d="m 7,5 h 12 v 6.066406 H 7 Z m 0,0"
         id="path4863" />
    </clipPath>
    <clipPath
       id="clipPath1590">
      <path
         clip-rule="nonzero"
         d="m 7,5 h 9 v 6.066406 H 7 Z m 0,0"
         id="path7390" />
    </clipPath>
    <clipPath
       id="clipPath2948">
      <path
         clip-rule="nonzero"
         d="m 15,5 h 5 v 6.066406 h -5 z m 0,0"
         id="path7932" />
    </clipPath>
    <clipPath
       id="clipPath7494">
      <path
         clip-rule="nonzero"
         d="m 20,5 h 12 v 6.066406 H 20 Z m 0,0"
         id="path9555" />
    </clipPath>
    <clipPath
       id="clipPath3567">
      <path
         clip-rule="nonzero"
         d="M 0,0 H 34 V 11.988281 H 0 Z m 0,0"
         id="path1464" />
    </clipPath>
    <clipPath
       id="clipPath9450">
      <path
         clip-rule="nonzero"
         d="m 41,6 h 13 v 5.988281 H 41 Z m 0,0"
         id="path8909" />
    </clipPath>
    <clipPath
       id="clipPath243">
      <path
         clip-rule="nonzero"
         d="m 54,0 h 4 v 11.988281 h -4 z m 0,0"
         id="path9050" />
    </clipPath>
    <clipPath
       id="clipPath3982">
      <path
         clip-rule="nonzero"
         d="M 0,3 H 7 V 8.300781 H 0 Z m 0,0"
         id="path7397" />
    </clipPath>
    <clipPath
       id="clipPath1693">
      <path
         clip-rule="nonzero"
         d="m 22,3 h 7 v 5.300781 h -7 z m 0,0"
         id="path9063" />
    </clipPath>
  </defs>
  <g
     inkscape:label="Ebene 1"
     inkscape:groupmode="layer"
     id="layer1"
     transform="translate(-16.3307, -6.49546)">
    <path
       style="fill:#00ff00;stroke:#000000;stroke-width:0.2;fill-opacity:0.2;stroke-dasharray:none"
       d="m 23.495959,58.174895 50.604646,4.209589 -26.421895,-51.769 z"
       id="path99393" />
    <ellipse
       style="fill:#0000ff;fill-opacity:1;stroke:#000000;stroke-width:0.0634411;stroke-dasharray:none;stroke-opacity:1"
       id="path3632"
       cx="18.830673"
       cy="8.9825468"
       rx="0.46827942"
       ry="0.45536557" />
    <ellipse
       style="fill:#0000ff;fill-opacity:1;stroke:#000000;stroke-width:0.0634411;stroke-dasharray:none;stroke-opacity:1"
       id="ellipse5554"
       cx="27.798437"
       cy="8.9825468"
       rx="0.468279"
       ry="0.45536557" />
    <ellipse
       style="fill:#0000ff;fill-opacity:1;stroke:#000000;stroke-width:0.0634411;stroke-dasharray:none;stroke-opacity:1"
       id="ellipse5556"
       cx="35.80381"
       cy="8.9825468"
       rx="0.46827942"
       ry="0.45536557" />
    <ellipse
       style="fill:#0000ff;fill-opacity:1;stroke:#000000;stroke-width:0.0634411;stroke-dasharray:none;stroke-opacity:1"
       id="ellipse5558"
       cx="43.809185"
       cy="8.9825468"
       rx="0.46827942"
       ry="0.45536557" />
    <ellipse
       style="fill:#0000ff;fill-opacity:1;stroke:#000000;stroke-width:0.0634411;stroke-dasharray:none;stroke-opacity:1"
       id="ellipse5560"
       cx="51.814556"
       cy="8.9825468"
       rx="0.46827942"
       ry="0.45536557" />
    <ellipse
       style="fill:#0000ff;fill-opacity:1;stroke:#000000;stroke-width:0.0634411;stroke-dasharray:none;stroke-opacity:1"
       id="ellipse5562"
       cx="59.819931"
       cy="8.9825468"
       rx="0.46827942"
       ry="0.45536557" />
    <ellipse
       style="fill:#0000ff;fill-opacity:1;stroke:#000000;stroke-width:0.063441;stroke-dasharray:none;stroke-opacity:1"
       id="ellipse5564"
       cx="67.82531"
       cy="8.9825468"
       rx="0.46827763"
       ry="0.45536557" />
    <ellipse
       style="fill:#0000ff;fill-opacity:1;stroke:#000000;stroke-width:0.0634411;stroke-dasharray:none;stroke-opacity:1"
       id="ellipse5566"
       cx="75.830673"
       cy="8.9825468"
       rx="0.46827942"
       ry="0.45536557" />
    <ellipse
       style="fill:#0000ff;fill-opacity:1;stroke:#000000;stroke-width:0.0634411;stroke-dasharray:none;stroke-opacity:1"
       id="ellipse5568"
       cx="18.830673"
       cy="16.986237"
       rx="0.46827942"
       ry="0.45536557" />
    <ellipse
       style="fill:#0000ff;fill-opacity:1;stroke:#000000;stroke-width:0.0634411;stroke-dasharray:none;stroke-opacity:1"
       id="ellipse5570"
       cx="27.798437"
       cy="16.986237"
       rx="0.468279"
       ry="0.45536557" />
    <ellipse
       style="fill:#0000ff;fill-opacity:1;stroke:#000000;stroke-width:0.0634411;stroke-dasharray:none;stroke-opacity:1"
       id="ellipse5572"
       cx="35.80381"
       cy="16.986237"
       rx="0.46827942"
       ry="0.45536557" />
    <ellipse
       style="fill:#0000ff;fill-opacity:1;stroke:#000000;stroke-width:0.0634411;stroke-dasharray:none;stroke-opacity:1"
       id="ellipse5574"
       cx="43.809185"
       cy="16.986237"
       rx="0.46827942"
       ry="0.45536557" />
    <ellipse
       style="fill:#0000ff;fill-opacity:1;stroke:#000000;stroke-width:0.0634411;stroke-dasharray:none;stroke-opacity:1"
       id="ellipse5576"
       cx="51.814556"
       cy="16.986237"
       rx="0.46827942"
       ry="0.45536557" />
    <ellipse
       style="fill:#0000ff;fill-opacity:1;stroke:#000000;stroke-width:0.0634411;stroke-dasharray:none;stroke-opacity:1"
       id="ellipse5578"
       cx="59.819931"
       cy="16.986237"
       rx="0.46827942"
       ry="0.45536557" />
    <ellipse
       style="fill:#0000ff;fill-opacity:1;stroke:#000000;stroke-width:0.063441;stroke-dasharray:none;stroke-opacity:1"
       id="ellipse5580"
       cx="67.82531"
       cy="16.986237"
       rx="0.46827763"
       ry="0.45536557" />
    <ellipse
       style="fill:#0000ff;fill-opacity:1;stroke:#000000;stroke-width:0.0634411;stroke-dasharray:none;stroke-opacity:1"
       id="ellipse5582"
       cx="75.830673"
       cy="16.986237"
       rx="0.46827942"
       ry="0.45536557" />
    <ellipse
       style="fill:#0000ff;fill-opacity:1;stroke:#000000;stroke-width:0.0634411;stroke-dasharray:none;stroke-opacity:1"
       id="ellipse5584"
       cx="18.830673"
       cy="24.989925"
       rx="0.46827942"
       ry="0.45536557" />
    <ellipse
       style="fill:#0000ff;fill-opacity:1;stroke:#000000;stroke-width:0.0634411;stroke-dasharray:none;stroke-opacity:1"
       id="ellipse5586"
       cx="27.798437"
       cy="24.989925"
       rx="0.468279"
       ry="0.45536557" />
    <ellipse
       style="fill:#0000ff;fill-opacity:1;stroke:#000000;stroke-width:0.0634411;stroke-dasharray:none;stroke-opacity:1"
       id="ellipse5588"
       cx="35.80381"
       cy="24.989925"
       rx="0.46827942"
       ry="0.45536557" />
    <ellipse
       style="fill:#0000ff;fill-opacity:1;stroke:#000000;stroke-width:0.0634411;stroke-dasharray:none;stroke-opacity:1"
       id="ellipse5590"
       cx="43.809185"
       cy="24.989925"
       rx="0.46827942"
       ry="0.45536557" />
    <ellipse
       style="fill:#0000ff;fill-opacity:1;stroke:#000000;stroke-width:0.0634411;stroke-dasharray:none;stroke-opacity:1"
       id="ellipse5592"
       cx="51.814556"
       cy="24.989925"
       rx="0.46827942"
       ry="0.45536557" />
    <ellipse
       style="fill:#0000ff;fill-opacity:1;stroke:#000000;stroke-width:0.0634411;stroke-dasharray:none;stroke-opacity:1"
       id="ellipse5594"
       cx="59.819931"
       cy="24.989925"
       rx="0.46827942"
       ry="0.45536557" />
    <ellipse
       style="fill:#0000ff;fill-opacity:1;stroke:#000000;stroke-width:0.063441;stroke-dasharray:none;stroke-opacity:1"
       id="ellipse5596"
       cx="67.82531"
       cy="24.989925"
       rx="0.46827763"
       ry="0.45536557" />
    <ellipse
       style="fill:#0000ff;fill-opacity:1;stroke:#000000;stroke-width:0.0634411;stroke-dasharray:none;stroke-opacity:1"
       id="ellipse5598"
       cx="75.830673"
       cy="24.989925"
       rx="0.46827942"
       ry="0.45536557" />
    <ellipse
       style="fill:#0000ff;fill-opacity:1;stroke:#000000;stroke-width:0.0634411;stroke-dasharray:none;stroke-opacity:1"
       id="ellipse5600"
       cx="18.830673"
       cy="32.993614"
       rx="0.46827942"
       ry="0.45536557" />
    <ellipse
       style="fill:#0000ff;fill-opacity:1;stroke:#000000;stroke-width:0.0634411;stroke-dasharray:none;stroke-opacity:1"
       id="ellipse5602"
       cx="27.798437"
       cy="32.993614"
       rx="0.468279"
       ry="0.45536557" />
    <ellipse
       style="fill:#0000ff;fill-opacity:1;stroke:#000000;stroke-width:0.0634411;stroke-dasharray:none;stroke-opacity:1"
       id="ellipse5604"
       cx="35.80381"
       cy="32.993614"
       rx="0.46827942"
       ry="0.45536557" />
    <ellipse
       style="fill:#0000ff;fill-opacity:1;stroke:#000000;stroke-width:0.0634411;stroke-dasharray:none;stroke-opacity:1"
       id="ellipse5606"
       cx="43.809185"
       cy="32.993614"
       rx="0.46827942"
       ry="0.45536557" />
    <ellipse
       style="fill:#0000ff;fill-opacity:1;stroke:#000000;stroke-width:0.0634411;stroke-dasharray:none;stroke-opacity:1"
       id="ellipse5608"
       cx="51.814556"
       cy="32.993614"
       rx="0.46827942"
       ry="0.45536557" />
    <ellipse
       style="fill:#0000ff;fill-opacity:1;stroke:#000000;stroke-width:0.0634411;stroke-dasharray:none;stroke-opacity:1"
       id="ellipse5610"
       cx="59.819931"
       cy="32.993614"
       rx="0.46827942"
       ry="0.45536557" />
    <ellipse
       style="fill:#0000ff;fill-opacity:1;stroke:#000000;stroke-width:0.063441;stroke-dasharray:none;stroke-opacity:1"
       id="ellipse5612"
       cx="67.82531"
       cy="32.993614"
       rx="0.46827763"
       ry="0.45536557" />
    <ellipse
       style="fill:#0000ff;fill-opacity:1;stroke:#000000;stroke-width:0.0634411;stroke-dasharray:none;stroke-opacity:1"
       id="ellipse5614"
       cx="75.830673"
       cy="32.993614"
       rx="0.46827942"
       ry="0.45536557" />
    <ellipse
       style="fill:#0000ff;fill-opacity:1;stroke:#000000;stroke-width:0.0634411;stroke-dasharray:none;stroke-opacity:1"
       id="ellipse5616"
       cx="18.830673"
       cy="40.997307"
       rx="0.46827942"
       ry="0.45536557" />
    <ellipse
       style="fill:#0000ff;fill-opacity:1;stroke:#000000;stroke-width:0.0634411;stroke-dasharray:none;stroke-opacity:1"
       id="ellipse5618"
       cx="27.798437"
       cy="40.997307"
       rx="0.468279"
       ry="0.45536557" />
    <ellipse
       style="fill:#0000ff;fill-opacity:1;stroke:#000000;stroke-width:0.0634411;stroke-dasharray:none;stroke-opacity:1"
       id="ellipse5620"
       cx="35.80381"
       cy="40.997307"
       rx="0.46827942"
       ry="0.45536557" />
    <ellipse
       style="fill:#0000ff;fill-opacity:1;stroke:#000000;stroke-width:0.0634411;stroke-dasharray:none;stroke-opacity:1"
       id="ellipse5622"
       cx="43.809185"
       cy="40.997307"
       rx="0.46827942"
       ry="0.45536557" />
    <ellipse
       style="fill:#0000ff;fill-opacity:1;stroke:#000000;stroke-width:0.0634411;stroke-dasharray:none;stroke-opacity:1"
       id="ellipse5624"
       cx="51.814556"
       cy="40.997307"
       rx="0.46827942"
       ry="0.45536557" />
    <ellipse
       style="fill:#0000ff;fill-opacity:1;stroke:#000000;stroke-width:0.0634411;stroke-dasharray:none;stroke-opacity:1"
       id="ellipse5626"
       cx="59.819931"
       cy="40.997307"
       rx="0.46827942"
       ry="0.45536557" />
    <ellipse
       style="fill:#0000ff;fill-opacity:1;stroke:#000000;stroke-width:0.063441;stroke-dasharray:none;stroke-opacity:1"
       id="ellipse5628"
       cx="67.82531"
       cy="40.997307"
       rx="0.46827763"
       ry="0.45536557" />
    <ellipse
       style="fill:#0000ff;fill-opacity:1;stroke:#000000;stroke-width:0.0634411;stroke-dasharray:none;stroke-opacity:1"
       id="ellipse5630"
       cx="75.830673"
       cy="40.997307"
       rx="0.46827942"
       ry="0.45536557" />
    <ellipse
       style="fill:#0000ff;fill-opacity:1;stroke:#000000;stroke-width:0.0634411;stroke-dasharray:none;stroke-opacity:1"
       id="ellipse5632"
       cx="18.830673"
       cy="49.000996"
       rx="0.46827942"
       ry="0.45536557" />
    <ellipse
       style="fill:#0000ff;fill-opacity:1;stroke:#000000;stroke-width:0.0634411;stroke-dasharray:none;stroke-opacity:1"
       id="ellipse5634"
       cx="27.798437"
       cy="49.000996"
       rx="0.468279"
       ry="0.45536557" />
    <ellipse
       style="fill:#0000ff;fill-opacity:1;stroke:#000000;stroke-width:0.0634411;stroke-dasharray:none;stroke-opacity:1"
       id="ellipse5636"
       cx="35.80381"
       cy="49.000996"
       rx="0.46827942"
       ry="0.45536557" />
    <ellipse
       style="fill:#0000ff;fill-opacity:1;stroke:#000000;stroke-width:0.0634411;stroke-dasharray:none;stroke-opacity:1"
       id="ellipse5638"
       cx="43.809185"
       cy="49.000996"
       rx="0.46827942"
       ry="0.45536557" />
    <ellipse
       style="fill:#0000ff;fill-opacity:1;stroke:#000000;stroke-width:0.0634411;stroke-dasharray:none;stroke-opacity:1"
       id="ellipse5640"
       cx="51.814556"
       cy="49.000996"
       rx="0.46827942"
       ry="0.45536557" />
    <ellipse
       style="fill:#0000ff;fill-opacity:1;stroke:#000000;stroke-width:0.0634411;stroke-dasharray:none;stroke-opacity:1"
       id="ellipse5642"
       cx="59.819931"
       cy="49.000996"
       rx="0.46827942"
       ry="0.45536557" />
    <ellipse
       style="fill:#0000ff;fill-opacity:1;stroke:#000000;stroke-width:0.063441;stroke-dasharray:none;stroke-opacity:1"
       id="ellipse5644"
       cx="67.82531"
       cy="49.000996"
       rx="0.46827763"
       ry="0.45536557" />
    <ellipse
       style="fill:#0000ff;fill-opacity:1;stroke:#000000;stroke-width:0.0634411;stroke-dasharray:none;stroke-opacity:1"
       id="ellipse5646"
       cx="75.830673"
       cy="49.000996"
       rx="0.46827942"
       ry="0.45536557" />
    <ellipse
       style="fill:#0000ff;fill-opacity:1;stroke:#000000;stroke-width:0.0634411;stroke-dasharray:none;stroke-opacity:1"
       id="ellipse5648"
       cx="18.830673"
       cy="57.004684"
       rx="0.46827942"
       ry="0.45536557" />
    <ellipse
       style="fill:#0000ff;fill-opacity:1;stroke:#000000;stroke-width:0.0634411;stroke-dasharray:none;stroke-opacity:1"
       id="ellipse5650"
       cx="27.798437"
       cy="57.004684"
       rx="0.468279"
       ry="0.45536557" />
    <ellipse
       style="fill:#0000ff;fill-opacity:1;stroke:#000000;stroke-width:0.0634411;stroke-dasharray:none;stroke-opacity:1"
       id="ellipse5652"
       cx="35.80381"
       cy="57.004684"
       rx="0.46827942"
       ry="0.45536557" />
    <ellipse
       style="fill:#0000ff;fill-opacity:1;stroke:#000000;stroke-width:0.0634411;stroke-dasharray:none;stroke-opacity:1"
       id="ellipse5654"
       cx="43.809185"
       cy="57.004684"
       rx="0.46827942"
       ry="0.45536557" />
    <ellipse
       style="fill:#0000ff;fill-opacity:1;stroke:#000000;stroke-width:0.0634411;stroke-dasharray:none;stroke-opacity:1"
       id="ellipse5656"
       cx="51.814556"
       cy="57.004684"
       rx="0.46827942"
       ry="0.45536557" />
    <ellipse
       style="fill:#0000ff;fill-opacity:1;stroke:#000000;stroke-width:0.0634411;stroke-dasharray:none;stroke-opacity:1"
       id="ellipse5658"
       cx="59.819931"
       cy="57.004684"
       rx="0.46827942"
       ry="0.45536557" />
    <ellipse
       style="fill:#0000ff;fill-opacity:1;stroke:#000000;stroke-width:0.063441;stroke-dasharray:none;stroke-opacity:1"
       id="ellipse5660"
       cx="67.82531"
       cy="57.004684"
       rx="0.46827763"
       ry="0.45536557" />
    <ellipse
       style="fill:#0000ff;fill-opacity:1;stroke:#000000;stroke-width:0.0634411;stroke-dasharray:none;stroke-opacity:1"
       id="ellipse5662"
       cx="75.830673"
       cy="57.004684"
       rx="0.46827942"
       ry="0.45536557" />
    <ellipse
       style="fill:#0000ff;fill-opacity:1;stroke:#000000;stroke-width:0.0634409;stroke-dasharray:none;stroke-opacity:1"
       id="ellipse5664"
       cx="18.830673"
       cy="65.008369"
       rx="0.46827942"
       ry="0.45536575" />
    <ellipse
       style="fill:#0000ff;fill-opacity:1;stroke:#000000;stroke-width:0.0634409;stroke-dasharray:none;stroke-opacity:1"
       id="ellipse5666"
       cx="27.798437"
       cy="65.008369"
       rx="0.468279"
       ry="0.45536575" />
    <ellipse
       style="fill:#0000ff;fill-opacity:1;stroke:#000000;stroke-width:0.0634409;stroke-dasharray:none;stroke-opacity:1"
       id="ellipse5668"
       cx="35.80381"
       cy="65.008369"
       rx="0.46827942"
       ry="0.45536575" />
    <ellipse
       style="fill:#0000ff;fill-opacity:1;stroke:#000000;stroke-width:0.0634409;stroke-dasharray:none;stroke-opacity:1"
       id="ellipse5670"
       cx="43.809185"
       cy="65.008369"
       rx="0.46827942"
       ry="0.45536575" />
    <ellipse
       style="fill:#0000ff;fill-opacity:1;stroke:#000000;stroke-width:0.0634409;stroke-dasharray:none;stroke-opacity:1"
       id="ellipse5672"
       cx="51.814556"
       cy="65.008369"
       rx="0.46827942"
       ry="0.45536575" />
    <ellipse
       style="fill:#0000ff;fill-opacity:1;stroke:#000000;stroke-width:0.0634409;stroke-dasharray:none;stroke-opacity:1"
       id="ellipse5674"
       cx="59.819931"
       cy="65.008369"
       rx="0.46827942"
       ry="0.45536575" />
    <ellipse
       style="fill:#0000ff;fill-opacity:1;stroke:#000000;stroke-width:0.0634408;stroke-dasharray:none;stroke-opacity:1"
       id="ellipse5676"
       cx="67.825302"
       cy="65.008369"
       rx="0.46827763"
       ry="0.45536575" />
    <ellipse
       style="fill:#0000ff;fill-opacity:1;stroke:#000000;stroke-width:0.0634409;stroke-dasharray:none;stroke-opacity:1"
       id="ellipse5678"
       cx="75.830673"
       cy="65.008369"
       rx="0.46827942"
       ry="0.45536575" />
    <path
       style="fill:#11ff00;fill-opacity:0.2;stroke:#00ffff;stroke-width:0.2;stroke-dasharray:1.2, 1.2;stroke-dashoffset:0;stroke-opacity:1"
       d="M 73.209528,53.479647 21.218229,53.293786"
       id="path14278"
       sodipodi:nodetypes="cc" />
    <g
       inkscape:label=""
       transform="translate(43.091456,26.468679)"
       id="g29820"
       style="fill:#ff0000">
      <g
         fill="#000000"
         fill-opacity="1"
         id="g29"
         transform="matrix(0.352778,0,0,0.352778,-0.115755,-0.001808)"
         style="fill:#ff0000">
        <g
           id="use27"
           transform="translate(0.72500002,8.302)"
           style="fill:#ff0000">
          <path
             d="m 2.921875,-8.296875 -1.5625,1.625 0.1875,0.1875 1.375,-1.234375 1.375,1.234375 0.1875,-0.1875 z m 0,0"
             id="path55"
             style="fill:#ff0000" />
        </g>
      </g>
      <g
         clip-path="url(#clipPath3982)"
         id="g35"
         transform="matrix(0.352778,0,0,0.352778,-0.115755,-0.001808)"
         style="fill:#ff0000">
        <g
           fill="#000000"
           fill-opacity="1"
           id="g33"
           style="fill:#ff0000">
          <g
             id="use31"
             transform="translate(0,8.302)"
             style="fill:#ff0000">
            <path
               d="m 5.671875,-4.875 c -0.390625,0.0625 -0.53125,0.359375 -0.53125,0.578125 0,0.296875 0.21875,0.390625 0.390625,0.390625 0.359375,0 0.609375,-0.3125 0.609375,-0.640625 0,-0.5 -0.578125,-0.71875 -1.078125,-0.71875 -0.71875,0 -1.125,0.71875 -1.234375,0.9375 -0.28125,-0.890625 -1.015625,-0.9375 -1.234375,-0.9375 -1.21875,0 -1.859375,1.5625 -1.859375,1.828125 0,0.046875 0.046875,0.109375 0.125,0.109375 0.09375,0 0.125,-0.078125 0.140625,-0.125 0.40625,-1.328125 1.21875,-1.578125 1.5625,-1.578125 0.53125,0 0.640625,0.5 0.640625,0.78125 0,0.265625 -0.078125,0.546875 -0.21875,1.125 L 2.578125,-1.5 c -0.171875,0.71875 -0.515625,1.375 -1.15625,1.375 -0.0625,0 -0.359375,0 -0.609375,-0.15625 C 1.25,-0.359375 1.34375,-0.71875 1.34375,-0.859375 1.34375,-1.09375 1.15625,-1.25 0.9375,-1.25 c -0.296875,0 -0.609375,0.265625 -0.609375,0.640625 0,0.5 0.5625,0.734375 1.078125,0.734375 0.578125,0 0.984375,-0.453125 1.234375,-0.953125 C 2.828125,-0.125 3.4375,0.125 3.875,0.125 5.09375,0.125 5.734375,-1.453125 5.734375,-1.703125 5.734375,-1.765625 5.6875,-1.8125 5.625,-1.8125 5.515625,-1.8125 5.5,-1.75 5.46875,-1.65625 5.140625,-0.609375 4.453125,-0.125 3.90625,-0.125 3.484375,-0.125 3.265625,-0.4375 3.265625,-0.921875 3.265625,-1.1875 3.3125,-1.375 3.5,-2.15625 L 3.921875,-3.796875 C 4.09375,-4.5 4.5,-5.03125 5.0625,-5.03125 c 0.015625,0 0.359375,0 0.609375,0.15625 z m 0,0"
               id="path59"
               style="fill:#ff0000" />
          </g>
        </g>
      </g>
      <g
         fill="#000000"
         fill-opacity="1"
         id="g39"
         transform="matrix(0.352778,0,0,0.352778,-0.115755,-0.001808)"
         style="fill:#ff0000">
        <g
           id="use37"
           transform="translate(9.9729996,8.302)"
           style="fill:#ff0000">
          <path
             d="m 8.0625,-3.875 c 0.171875,0 0.390625,0 0.390625,-0.21875 C 8.453125,-4.3125 8.25,-4.3125 8.0625,-4.3125 H 1.03125 c -0.171875,0 -0.390625,0 -0.390625,0.21875 0,0.21875 0.203125,0.21875 0.390625,0.21875 z m 0,2.21875 c 0.171875,0 0.390625,0 0.390625,-0.203125 C 8.453125,-2.09375 8.25,-2.09375 8.0625,-2.09375 H 1.03125 c -0.171875,0 -0.390625,0 -0.390625,0.21875 0,0.21875 0.203125,0.21875 0.390625,0.21875 z m 0,0"
             id="path63"
             style="fill:#ff0000" />
        </g>
      </g>
      <g
         clip-path="url(#clipPath1693)"
         id="g45"
         transform="matrix(0.352778,0,0,0.352778,-0.115755,-0.001808)"
         style="fill:#ff0000">
        <g
           fill="#000000"
           fill-opacity="1"
           id="g43"
           style="fill:#ff0000">
          <g
             id="use41"
             transform="translate(22.398001,8.302)"
             style="fill:#ff0000">
            <path
               d="m 5.671875,-4.875 c -0.390625,0.0625 -0.53125,0.359375 -0.53125,0.578125 0,0.296875 0.21875,0.390625 0.390625,0.390625 0.359375,0 0.609375,-0.3125 0.609375,-0.640625 0,-0.5 -0.578125,-0.71875 -1.078125,-0.71875 -0.71875,0 -1.125,0.71875 -1.234375,0.9375 -0.28125,-0.890625 -1.015625,-0.9375 -1.234375,-0.9375 -1.21875,0 -1.859375,1.5625 -1.859375,1.828125 0,0.046875 0.046875,0.109375 0.125,0.109375 0.09375,0 0.125,-0.078125 0.140625,-0.125 0.40625,-1.328125 1.21875,-1.578125 1.5625,-1.578125 0.53125,0 0.640625,0.5 0.640625,0.78125 0,0.265625 -0.078125,0.546875 -0.21875,1.125 L 2.578125,-1.5 c -0.171875,0.71875 -0.515625,1.375 -1.15625,1.375 -0.0625,0 -0.359375,0 -0.609375,-0.15625 C 1.25,-0.359375 1.34375,-0.71875 1.34375,-0.859375 1.34375,-1.09375 1.15625,-1.25 0.9375,-1.25 c -0.296875,0 -0.609375,0.265625 -0.609375,0.640625 0,0.5 0.5625,0.734375 1.078125,0.734375 0.578125,0 0.984375,-0.453125 1.234375,-0.953125 C 2.828125,-0.125 3.4375,0.125 3.875,0.125 5.09375,0.125 5.734375,-1.453125 5.734375,-1.703125 5.734375,-1.765625 5.6875,-1.8125 5.625,-1.8125 5.515625,-1.8125 5.5,-1.75 5.46875,-1.65625 5.140625,-0.609375 4.453125,-0.125 3.90625,-0.125 3.484375,-0.125 3.265625,-0.4375 3.265625,-0.921875 3.265625,-1.1875 3.3125,-1.375 3.5,-2.15625 L 3.921875,-3.796875 C 4.09375,-4.5 4.5,-5.03125 5.0625,-5.03125 c 0.015625,0 0.359375,0 0.609375,0.15625 z m 0,0"
               id="path67"
               style="fill:#ff0000" />
          </g>
        </g>
      </g>
      <g
         fill="#000000"
         fill-opacity="1"
         id="g49"
         transform="matrix(0.352778,0,0,0.352778,-0.115755,-0.001808)"
         style="fill:#ff0000">
        <g
           id="use47"
           transform="translate(29.049999,3.964)"
           style="fill:#ff0000">
          <path
             d="M 3.296875,-1.046875 C 3.359375,-1 3.390625,-1 3.421875,-1 c 0.125,0 0.25,-0.109375 0.25,-0.25 0,-0.15625 -0.09375,-0.1875 -0.203125,-0.234375 -0.53125,-0.25 -0.734375,-0.34375 -1.125,-0.5 L 3.28125,-2.40625 C 3.34375,-2.4375 3.5,-2.5 3.5625,-2.53125 c 0.078125,-0.046875 0.109375,-0.125 0.109375,-0.1875 0,-0.109375 -0.046875,-0.25 -0.296875,-0.25 L 2.234375,-2.1875 2.34375,-3.375 c 0.015625,-0.125 0,-0.328125 -0.234375,-0.328125 -0.140625,0 -0.25,0.125 -0.234375,0.234375 V -3.375 L 1.984375,-2.1875 0.9375,-2.921875 C 0.859375,-2.96875 0.84375,-2.96875 0.796875,-2.96875 c -0.125,0 -0.234375,0.09375 -0.234375,0.25 0,0.140625 0.078125,0.171875 0.1875,0.234375 0.546875,0.25 0.734375,0.328125 1.125,0.5 L 0.9375,-1.5625 C 0.875,-1.546875 0.71875,-1.46875 0.65625,-1.453125 0.578125,-1.40625 0.5625,-1.328125 0.5625,-1.25 c 0,0.140625 0.109375,0.25 0.234375,0.25 0.0625,0 0.078125,0 0.28125,-0.140625 L 1.984375,-1.78125 1.875,-0.5 c 0,0.15625 0.140625,0.234375 0.234375,0.234375 0.109375,0 0.234375,-0.078125 0.234375,-0.234375 0,-0.078125 -0.03125,-0.34375 -0.03125,-0.4375 C 2.28125,-1.203125 2.25,-1.5 2.234375,-1.78125 Z m 0,0"
             id="path71"
             style="fill:#ff0000" />
        </g>
      </g>
    </g>
    <path
       style="fill:#11ff00;fill-opacity:0.2;stroke:#00ffff;stroke-width:0.2;stroke-dasharray:1.2, 1.2;stroke-dashoffset:0;stroke-opacity:1"
       d="M 73.209528,36.347107 21.218229,36.161246"
       id="path99758"
       sodipodi:nodetypes="cc" />
    <path
       style="fill:#11ff00;fill-opacity:0.2;stroke:#00ffff;stroke-width:0.2;stroke-dasharray:1.2, 1.2;stroke-dashoffset:0;stroke-opacity:1"
       d="M 73.209528,20.135707 21.218229,19.949846"
       id="path99760"
       sodipodi:nodetypes="cc" />
    <path
       style="fill:#00ff00;fill-opacity:0.2;stroke:#ff0000;stroke-width:0.5;stroke-dasharray:none;stroke-opacity:1"
       d="M 29.877673,38.49546 57.373226,11.43316"
       id="path100097"
       sodipodi:nodetypes="cc" />
    <path
       style="fill:#00ff00;fill-opacity:0.2;stroke:#ff0000;stroke-width:0.5;stroke-dasharray:none;stroke-opacity:1"
       d="M 35.30381,24.989925 69.106338,24.868022"
       id="path100099"
       sodipodi:nodetypes="cc" />
    <ellipse
       style="fill:#ff0000;fill-opacity:1;stroke:#000000;stroke-width:0.128554;stroke-dasharray:none;stroke-opacity:1"
       id="ellipse8805"
       cx="43.809185"
       cy="24.989925"
       rx="0.93572325"
       ry="0.93572319" />
  </g>
</svg>
